# Blender 4.4.1
# www.blender.org
mtllib fence.mtl
o Plane2
v -2.122391 -0.999998 -1.225363
v 2.122389 -1.000002 1.225362
v -2.122389 1.000002 -1.225362
v 2.122391 0.999998 1.225363
v -2.122391 -0.999999 1.225363
v 2.122389 -1.000001 -1.225362
v -2.122389 1.000001 1.225362
v 2.122391 0.999999 -1.225363
vn -0.5000 -0.0000 0.8660
vn 0.5000 -0.0000 0.8660
vt 1.000000 0.000000
vt 0.000000 1.000000
vt 0.000000 0.000000
vt 1.000000 1.000000
s 1
usemtl Material.001
f 2/1/1 3/2/1 1/3/1
f 2/1/1 4/4/1 3/2/1
f 6/1/2 7/2/2 5/3/2
f 6/1/2 8/4/2 7/2/2
