# Blender 4.4.1
# www.blender.org
mtllib ring.mtl
o トーラス
v 1.250000 -0.000000 0.000000
v 1.077254 0.044895 0.000000
v 0.797746 0.027746 0.000000
v 0.797746 -0.027746 0.000000
v 1.077254 -0.044895 0.000000
v 0.883883 -0.000000 -0.883884
v 0.761734 0.044895 -0.761734
v 0.564091 0.027746 -0.564092
v 0.564091 -0.027746 -0.564092
v 0.761734 -0.044895 -0.761734
v 0.000000 -0.000000 -1.250000
v 0.000000 0.044895 -1.077254
v 0.000000 0.027746 -0.797746
v 0.000000 -0.027746 -0.797746
v 0.000000 -0.044895 -1.077254
v -0.883884 -0.000000 -0.883883
v -0.761734 0.044895 -0.761734
v -0.564092 0.027746 -0.564091
v -0.564092 -0.027746 -0.564091
v -0.761734 -0.044895 -0.761734
v -1.250000 -0.000000 -0.000000
v -1.077254 0.044895 -0.000000
v -0.797746 0.027746 -0.000000
v -0.797746 -0.027746 -0.000000
v -1.077254 -0.044895 -0.000000
v -0.883884 -0.000000 0.883883
v -0.761734 0.044895 0.761734
v -0.564092 0.027746 0.564091
v -0.564092 -0.027746 0.564091
v -0.761734 -0.044895 0.761734
v 0.000000 -0.000000 1.250000
v 0.000000 0.044895 1.077254
v 0.000000 0.027746 0.797746
v 0.000000 -0.027746 0.797746
v 0.000000 -0.044895 1.077254
v 0.883883 -0.000000 0.883884
v 0.761733 0.044895 0.761734
v 0.564091 0.027746 0.564092
v 0.564091 -0.027746 0.564092
v 0.761733 -0.044895 0.761734
vn 0.2502 0.9626 -0.1036
vn -0.0612 0.9978 0.0254
vn -0.9239 -0.0000 0.3827
vn -0.0612 -0.9978 0.0254
vn 0.2502 -0.9626 -0.1036
vn 0.1036 0.9626 -0.2502
vn -0.0254 0.9978 0.0612
vn -0.3827 -0.0000 0.9239
vn -0.0254 -0.9978 0.0612
vn 0.1036 -0.9626 -0.2502
vn -0.1036 0.9626 -0.2502
vn 0.0254 0.9978 0.0612
vn 0.3827 -0.0000 0.9239
vn 0.0254 -0.9978 0.0612
vn -0.1036 -0.9626 -0.2502
vn -0.2502 0.9626 -0.1036
vn 0.0612 0.9978 0.0254
vn 0.9239 -0.0000 0.3827
vn 0.0612 -0.9978 0.0254
vn -0.2502 -0.9626 -0.1036
vn -0.2502 0.9626 0.1036
vn 0.0612 0.9978 -0.0254
vn 0.9239 -0.0000 -0.3827
vn 0.0612 -0.9978 -0.0254
vn -0.2502 -0.9626 0.1036
vn -0.1036 0.9626 0.2502
vn 0.0254 0.9978 -0.0612
vn 0.3827 -0.0000 -0.9239
vn 0.0254 -0.9978 -0.0612
vn -0.1036 -0.9626 0.2502
vn 0.1036 0.9626 0.2502
vn -0.0254 0.9978 -0.0612
vn -0.3827 -0.0000 -0.9239
vn -0.0254 -0.9978 -0.0612
vn 0.1036 -0.9626 0.2502
vn 0.2502 0.9626 0.1036
vn -0.0612 0.9978 -0.0254
vn -0.9239 -0.0000 -0.3827
vn -0.0612 -0.9978 -0.0254
vn 0.2502 -0.9626 0.1036
vt 0.625000 0.600000
vt 0.500000 0.800000
vt 0.500000 0.600000
vt 0.625000 0.800000
vt 0.500000 1.000000
vt 0.625000 0.000000
vt 0.500000 0.200000
vt 0.500000 0.000000
vt 0.625000 0.200000
vt 0.500000 0.400000
vt 0.750000 0.600000
vt 0.750000 1.000000
vt 0.625000 1.000000
vt 0.750000 0.000000
vt 0.750000 0.200000
vt 0.625000 0.400000
vt 0.875000 0.600000
vt 0.750000 0.800000
vt 0.875000 0.800000
vt 0.875000 0.000000
vt 0.875000 0.200000
vt 0.750000 0.400000
vt 1.000000 0.600000
vt 1.000000 1.000000
vt 0.875000 1.000000
vt 1.000000 0.000000
vt 1.000000 0.200000
vt 0.875000 0.400000
vt 1.000000 0.400000
vt 0.000000 0.600000
vt 0.125000 0.800000
vt 0.000000 0.800000
vt 0.000000 1.000000
vt 0.125000 0.000000
vt 0.000000 0.200000
vt 0.000000 0.000000
vt 0.125000 0.400000
vt 0.000000 0.400000
vt 0.125000 0.600000
vt 0.250000 0.800000
vt 0.125000 1.000000
vt 0.250000 0.000000
vt 0.125000 0.200000
vt 0.250000 0.200000
vt 0.250000 0.400000
vt 0.250000 0.600000
vt 0.375000 0.800000
vt 0.250000 1.000000
vt 0.375000 0.000000
vt 0.375000 0.200000
vt 0.375000 0.400000
vt 0.375000 0.600000
vt 0.375000 1.000000
vt 1.000000 0.800000
s 0
f 6/1/1 2/2/1 1/3/1
f 7/4/2 3/5/2 2/2/2
f 8/6/3 4/7/3 3/8/3
f 9/9/4 5/10/4 4/7/4
f 5/10/5 6/1/5 1/3/5
f 11/11/6 7/4/6 6/1/6
f 7/4/7 13/12/7 8/13/7
f 13/14/8 9/9/8 8/6/8
f 14/15/9 10/16/9 9/9/9
f 10/16/10 11/11/10 6/1/10
f 16/17/11 12/18/11 11/11/11
f 17/19/12 13/12/12 12/18/12
f 18/20/13 14/15/13 13/14/13
f 19/21/14 15/22/14 14/15/14
f 15/22/15 16/17/15 11/11/15
f 21/23/16 17/19/16 16/17/16
f 17/19/17 23/24/17 18/25/17
f 23/26/18 19/21/18 18/20/18
f 24/27/19 20/28/19 19/21/19
f 25/29/20 16/17/20 20/28/20
f 21/30/21 27/31/21 22/32/21
f 27/31/22 23/33/22 22/32/22
f 28/34/23 24/35/23 23/36/23
f 24/35/24 30/37/24 25/38/24
f 30/37/25 21/30/25 25/38/25
f 26/39/26 32/40/26 27/31/26
f 32/40/27 28/41/27 27/31/27
f 33/42/28 29/43/28 28/34/28
f 34/44/29 30/37/29 29/43/29
f 35/45/30 26/39/30 30/37/30
f 31/46/31 37/47/31 32/40/31
f 37/47/32 33/48/32 32/40/32
f 38/49/33 34/44/33 33/42/33
f 39/50/34 35/45/34 34/44/34
f 40/51/35 31/46/35 35/45/35
f 36/52/36 2/2/36 37/47/36
f 2/2/37 38/53/37 37/47/37
f 3/8/38 39/50/38 38/49/38
f 4/7/39 40/51/39 39/50/39
f 5/10/40 36/52/40 40/51/40
f 6/1/1 7/4/1 2/2/1
f 7/4/2 8/13/2 3/5/2
f 8/6/3 9/9/3 4/7/3
f 9/9/4 10/16/4 5/10/4
f 5/10/5 10/16/5 6/1/5
f 11/11/6 12/18/6 7/4/6
f 7/4/7 12/18/7 13/12/7
f 13/14/8 14/15/8 9/9/8
f 14/15/9 15/22/9 10/16/9
f 10/16/10 15/22/10 11/11/10
f 16/17/11 17/19/11 12/18/11
f 17/19/12 18/25/12 13/12/12
f 18/20/13 19/21/13 14/15/13
f 19/21/14 20/28/14 15/22/14
f 15/22/15 20/28/15 16/17/15
f 21/23/16 22/54/16 17/19/16
f 17/19/17 22/54/17 23/24/17
f 23/26/18 24/27/18 19/21/18
f 24/27/19 25/29/19 20/28/19
f 25/29/20 21/23/20 16/17/20
f 21/30/21 26/39/21 27/31/21
f 27/31/22 28/41/22 23/33/22
f 28/34/23 29/43/23 24/35/23
f 24/35/24 29/43/24 30/37/24
f 30/37/25 26/39/25 21/30/25
f 26/39/26 31/46/26 32/40/26
f 32/40/27 33/48/27 28/41/27
f 33/42/28 34/44/28 29/43/28
f 34/44/29 35/45/29 30/37/29
f 35/45/30 31/46/30 26/39/30
f 31/46/31 36/52/31 37/47/31
f 37/47/32 38/53/32 33/48/32
f 38/49/33 39/50/33 34/44/33
f 39/50/34 40/51/34 35/45/34
f 40/51/35 36/52/35 31/46/35
f 36/52/36 1/3/36 2/2/36
f 2/2/37 3/5/37 38/53/37
f 3/8/38 4/7/38 39/50/38
f 4/7/39 5/10/39 40/51/39
f 5/10/40 1/3/40 36/52/40
