# Blender 4.4.1
# www.blender.org
mtllib skyDome300.mtl
o 球
v 0.000000 294.235565 -58.527096
v 0.000000 249.440872 -166.671066
v 0.000000 212.132034 -212.132034
v 0.000000 114.805038 -277.163849
v 0.000000 58.527096 -294.235565
v 0.000000 0.000000 -300.000000
v 0.000000 -58.527096 -294.235565
v 0.000000 -114.805038 -277.163849
v 0.000000 -166.671066 -249.440872
v 11.418070 294.235565 -57.402512
v 22.397352 277.163849 -112.599091
v 32.515911 249.440872 -163.468521
v 41.384907 212.132034 -208.055969
v 48.663502 166.671066 -244.647934
v 54.071983 114.805038 -271.838226
v 57.402512 58.527096 -288.581909
v 58.527096 0.000000 -294.235565
v 57.402512 -58.527096 -288.581909
v 54.071983 -114.805038 -271.838226
v 48.663502 -166.671066 -244.647934
v 41.384907 -212.132034 -208.055969
v 32.515911 -249.440872 -163.468521
v 22.397352 -277.163849 -112.599091
v 11.418070 -294.235565 -57.402512
v 22.397348 294.235565 -54.071983
v 43.933987 277.163849 -106.066017
v 63.782253 249.440872 -153.983978
v 81.179413 212.132034 -195.984436
v 95.456886 166.671066 -230.453308
v 106.066010 114.805038 -256.066010
v 112.599075 58.527096 -271.838196
v 114.805023 0.000000 -277.163849
v 112.599075 -58.527096 -271.838196
v 106.066010 -114.805038 -256.066010
v 95.456886 -166.671066 -230.453308
v 81.179413 -212.132034 -195.984436
v 63.782253 -249.440872 -153.983978
v 43.933987 -277.163849 -106.066017
v 22.397348 -294.235565 -54.071983
v 32.515911 294.235565 -48.663498
v 63.782257 277.163849 -95.456886
v 92.597481 249.440872 -138.581909
v 117.854233 212.132034 -176.381332
v 138.581909 166.671066 -207.402496
v 153.983978 114.805038 -230.453308
v 163.468506 58.527096 -244.647903
v 166.671051 0.000000 -249.440872
v 163.468506 -58.527096 -244.647903
v 153.983978 -114.805038 -230.453308
v 138.581909 -166.671066 -207.402496
v 117.854233 -212.132034 -176.381332
v 92.597481 -249.440872 -138.581909
v 63.782257 -277.163849 -95.456886
v 32.515911 -294.235565 -48.663498
v 41.384903 294.235565 -41.384899
v 81.179413 277.163849 -81.179405
v 117.854233 249.440872 -117.854225
v 149.999985 212.132034 -149.999985
v 176.381317 166.671066 -176.381317
v 195.984421 114.805038 -195.984421
v 208.055939 58.527096 -208.055923
v 212.132004 0.000000 -212.132019
v 208.055939 -58.527096 -208.055923
v 195.984421 -114.805038 -195.984421
v 176.381317 -166.671066 -176.381317
v 149.999985 -212.132034 -149.999985
v 117.854233 -249.440872 -117.854225
v 81.179413 -277.163849 -81.179405
v 41.384903 -294.235565 -41.384899
v 48.663498 294.235565 -32.515903
v 95.456886 277.163849 -63.782242
v 138.581909 249.440872 -92.597466
v 176.381317 212.132034 -117.854218
v 207.402481 166.671066 -138.581894
v 230.453293 114.805038 -153.983963
v 244.647888 58.527096 -163.468475
v 249.440842 0.000000 -166.671051
v 244.647888 -58.527096 -163.468475
v 230.453293 -114.805038 -153.983963
v 207.402481 -166.671066 -138.581894
v 176.381317 -212.132034 -117.854218
v 138.581909 -249.440872 -92.597466
v 95.456886 -277.163849 -63.782242
v 48.663498 -294.235565 -32.515903
v 54.071976 294.235565 -22.397343
v 106.066002 277.163849 -43.933968
v 153.983963 249.440872 -63.782242
v 195.984406 212.132034 -81.179382
v 230.453278 166.671066 -95.456863
v 256.065979 114.805038 -106.065987
v 271.838165 58.527096 -112.599030
v 277.163818 0.000000 -114.805008
v 271.838165 -58.527096 -112.599030
v 256.065979 -114.805038 -106.065987
v 230.453278 -166.671066 -95.456863
v 195.984406 -212.132034 -81.179382
v 153.983963 -249.440872 -63.782242
v 106.066002 -277.163849 -43.933968
v 54.071976 -294.235565 -22.397343
v 57.402504 294.235565 -11.418064
v 112.599060 277.163849 -22.397335
v 163.468491 249.440872 -32.515900
v 208.055923 212.132034 -41.384876
v 244.647888 166.671066 -48.663475
v 271.838196 114.805038 -54.071960
v 288.581848 58.527096 -57.402473
v 294.235535 0.000000 -58.527081
v 288.581848 -58.527096 -57.402473
v 271.838196 -114.805038 -54.071960
v 244.647888 -166.671066 -48.663475
v 208.055923 -212.132034 -41.384876
v 163.468491 -249.440872 -32.515900
v 112.599060 -277.163849 -22.397335
v 57.402504 -294.235565 -11.418064
v 58.527084 294.235565 0.000005
v 114.805008 277.163849 0.000011
v 166.671021 249.440872 0.000006
v 212.131973 212.132034 0.000023
v 249.440811 166.671066 0.000015
v 277.163818 114.805038 0.000019
v 294.235504 58.527096 0.000027
v 299.999939 0.000000 0.000008
v 294.235504 -58.527096 0.000027
v 277.163818 -114.805038 0.000019
v 249.440811 -166.671066 0.000015
v 212.131973 -212.132034 0.000023
v 166.671021 -249.440872 0.000006
v 114.805008 -277.163849 0.000011
v 58.527084 -294.235565 0.000005
v 57.402500 294.235565 11.418073
v 112.599060 277.163849 22.397358
v 163.468475 249.440872 32.515907
v 208.055908 212.132034 41.384918
v 244.647873 166.671066 48.663506
v 271.838196 114.805038 54.071999
v 288.581848 58.527096 57.402527
v 294.235504 0.000000 58.527092
v 288.581848 -58.527096 57.402527
v 271.838196 -114.805038 54.071999
v 244.647873 -166.671066 48.663506
v 208.055908 -212.132034 41.384918
v 163.468475 -249.440872 32.515907
v 112.599060 -277.163849 22.397358
v 57.402500 -294.235565 11.418073
v 54.071972 294.235565 22.397350
v 106.065994 277.163849 43.933987
v 153.983932 249.440872 63.782242
v 195.984375 212.132034 81.179413
v 230.453247 166.671066 95.456879
v 256.065979 114.805038 106.066025
v 271.838165 58.527096 112.599075
v 277.163788 0.000000 114.805008
v 271.838165 -58.527096 112.599075
v 256.065979 -114.805038 106.066025
v 230.453247 -166.671066 95.456879
v 195.984375 -212.132034 81.179413
v 153.983932 -249.440872 63.782242
v 106.065994 -277.163849 43.933987
v 54.071972 -294.235565 22.397350
v 48.663486 294.235565 32.515911
v 95.456863 277.163849 63.782257
v 138.581879 249.440872 92.597458
v 176.381271 212.132034 117.854218
v 207.402435 166.671066 138.581894
v 230.453278 114.805038 153.983978
v 244.647873 58.527096 163.468506
v 249.440826 0.000000 166.671036
v 244.647873 -58.527096 163.468506
v 230.453278 -114.805038 153.983978
v 207.402435 -166.671066 138.581894
v 176.381271 -212.132034 117.854218
v 138.581879 -249.440872 92.597458
v 95.456863 -277.163849 63.782257
v 48.663486 -294.235565 32.515911
v 41.384888 294.235565 41.384903
v 81.179382 277.163849 81.179413
v 117.854202 249.440872 117.854202
v 149.999939 212.132034 149.999954
v 176.381271 166.671066 176.381287
v 195.984390 114.805038 195.984406
v 208.055893 58.527096 208.055939
v 212.131989 0.000000 212.131989
v 208.055893 -58.527096 208.055939
v 195.984390 -114.805038 195.984406
v 176.381271 -166.671066 176.381287
v 149.999939 -212.132034 149.999954
v 117.854202 -249.440872 117.854202
v 81.179382 -277.163849 81.179413
v 41.384888 -294.235565 41.384903
v 32.515892 294.235565 48.663494
v 63.782219 277.163849 95.456879
v 92.597443 249.440872 138.581879
v 117.854179 212.132034 176.381271
v 138.581879 166.671066 207.402435
v 153.983932 114.805038 230.453278
v 163.468445 58.527096 244.647888
v 166.671021 0.000000 249.440826
v 163.468445 -58.527096 244.647888
v 153.983932 -114.805038 230.453278
v 138.581879 -166.671066 207.402435
v 117.854179 -212.132034 176.381271
v 92.597443 -249.440872 138.581879
v 63.782219 -277.163849 95.456879
v 32.515892 -294.235565 48.663494
v 22.397331 294.235565 54.071972
v 43.933945 277.163849 106.065987
v 63.782223 249.440872 153.983932
v 81.179359 212.132034 195.984375
v 95.456863 166.671066 230.453232
v 106.065971 114.805038 256.065948
v 112.598999 58.527096 271.838135
v 114.804985 0.000000 277.163788
v 112.598999 -58.527096 271.838135
v 106.065971 -114.805038 256.065948
v 95.456863 -166.671066 230.453232
v 81.179359 -212.132034 195.984375
v 63.782223 -249.440872 153.983932
v 43.933945 -277.163849 106.065987
v 22.397331 -294.235565 54.071972
v 11.418054 294.235565 57.402496
v 22.397316 277.163849 112.599045
v 32.515888 249.440872 163.468475
v 41.384869 212.132034 208.055893
v 48.663486 166.671066 244.647842
v 54.071949 114.805038 271.838135
v 57.402451 58.527096 288.581818
v 58.527065 0.000000 294.235504
v 57.402451 -58.527096 288.581818
v 54.071949 -114.805038 271.838135
v 48.663486 -166.671066 244.647842
v 41.384869 -212.132034 208.055893
v 32.515888 -249.440872 163.468475
v 22.397316 -277.163849 112.599045
v 11.418054 -294.235565 57.402496
v -0.000012 294.235565 58.527073
v -0.000027 277.163849 114.804985
v -0.000013 249.440872 166.671005
v -0.000023 212.132034 212.131943
v 0.000000 166.671066 249.440765
v -0.000019 114.805038 277.163757
v -0.000042 58.527096 294.235474
v -0.000019 0.000000 299.999908
v -0.000042 -58.527096 294.235474
v -0.000019 -114.805038 277.163757
v 0.000000 -166.671066 249.440765
v -0.000023 -212.132034 212.131943
v -0.000013 -249.440872 166.671005
v -0.000027 -277.163849 114.804985
v -0.000012 -294.235565 58.527073
v 0.000000 -300.000000 0.000000
v -11.418078 294.235565 57.402485
v -22.397367 277.163849 112.599030
v -32.515911 249.440872 163.468460
v -41.384911 212.132034 208.055878
v -48.663479 166.671066 244.647827
v -54.071987 114.805038 271.838135
v -57.402534 58.527096 288.581818
v -58.527100 0.000000 294.235474
v -57.402534 -58.527096 288.581818
v -54.071987 -114.805038 271.838135
v -48.663479 -166.671066 244.647827
v -41.384911 -212.132034 208.055878
v -32.515911 -249.440872 163.468460
v -22.397367 -277.163849 112.599030
v -11.418078 -294.235565 57.402485
v -22.397352 294.235565 54.071953
v -43.933990 277.163849 106.065964
v -63.782242 249.440872 153.983917
v -81.179398 212.132034 195.984344
v -95.456848 166.671066 230.453201
v -106.065994 114.805038 256.065918
v -112.599075 58.527096 271.838135
v -114.805008 0.000000 277.163757
v -112.599075 -58.527096 271.838135
v -106.065994 -114.805038 256.065918
v -95.456848 -166.671066 230.453201
v -81.179398 -212.132034 195.984344
v -63.782242 -249.440872 153.983917
v -43.933990 -277.163849 106.065964
v -22.397352 -294.235565 54.071953
v -32.515907 294.235565 48.663467
v -63.782253 277.163849 95.456833
v -92.597458 249.440872 138.581863
v -117.854202 212.132034 176.381241
v -138.581848 166.671066 207.402390
v -153.983948 114.805038 230.453232
v -163.468506 58.527096 244.647842
v -166.671021 0.000000 249.440796
v -163.468506 -58.527096 244.647842
v -153.983948 -114.805038 230.453232
v -138.581848 -166.671066 207.402390
v -117.854202 -212.132034 176.381241
v -92.597458 -249.440872 138.581863
v -63.782253 -277.163849 95.456833
v -32.515907 -294.235565 48.663467
v -41.384895 294.235565 41.384872
v -81.179398 277.163849 81.179352
v -117.854202 249.440872 117.854187
v -149.999939 212.132034 149.999908
v -176.381241 166.671066 176.381226
v -195.984390 114.805038 195.984344
v -208.055923 58.527096 208.055862
v -212.131958 0.000000 212.131958
v -208.055923 -58.527096 208.055862
v -195.984390 -114.805038 195.984344
v -176.381241 -166.671066 176.381226
v -149.999939 -212.132034 149.999908
v -117.854202 -249.440872 117.854187
v -81.179398 -277.163849 81.179352
v -41.384895 -294.235565 41.384872
v 0.000000 300.000000 0.000000
v -48.663483 294.235565 32.515881
v -95.456856 277.163849 63.782200
v -138.581879 249.440872 92.597427
v -176.381256 212.132034 117.854156
v -207.402405 166.671066 138.581833
v -230.453247 114.805038 153.983887
v -244.647873 58.527096 163.468414
v -249.440781 0.000000 166.671005
v -244.647873 -58.527096 163.468414
v -230.453247 -114.805038 153.983887
v -207.402405 -166.671066 138.581833
v -176.381256 -212.132034 117.854156
v -138.581879 -249.440872 92.597427
v -95.456856 -277.163849 63.782200
v -48.663483 -294.235565 32.515881
v -54.071960 294.235565 22.397322
v -106.065964 277.163849 43.933929
v -153.983932 249.440872 63.782207
v -195.984344 212.132034 81.179337
v -230.453201 166.671066 95.456818
v -256.065918 114.805038 106.065933
v -271.838135 58.527096 112.598976
v -277.163757 0.000000 114.804977
v -271.838135 -58.527096 112.598976
v -256.065918 -114.805038 106.065933
v -230.453201 -166.671066 95.456818
v -195.984344 -212.132034 81.179337
v -153.983932 -249.440872 63.782207
v -106.065964 -277.163849 43.933929
v -54.071960 -294.235565 22.397322
v -57.402481 294.235565 11.418047
v -112.599014 277.163849 22.397305
v -163.468475 249.440872 32.515873
v -208.055847 212.132034 41.384850
v -244.647797 166.671066 48.663452
v -271.838104 114.805038 54.071918
v -288.581818 58.527096 57.402428
v -294.235474 0.000000 58.527061
v -288.581818 -58.527096 57.402428
v -271.838104 -114.805038 54.071918
v -244.647797 -166.671066 48.663452
v -208.055847 -212.132034 41.384850
v -163.468475 -249.440872 32.515873
v -112.599014 -277.163849 22.397305
v -57.402481 -294.235565 11.418047
v -58.527058 294.235565 -0.000016
v -114.804955 277.163849 -0.000032
v -166.671005 249.440872 -0.000029
v -212.131897 212.132034 -0.000034
v -249.440720 166.671066 -0.000019
v -277.163727 114.805038 -0.000042
v -294.235474 58.527096 -0.000065
v -299.999878 0.000000 -0.000015
v -294.235474 -58.527096 -0.000065
v -277.163727 -114.805038 -0.000042
v -249.440720 -166.671066 -0.000019
v -212.131897 -212.132034 -0.000034
v -166.671005 -249.440872 -0.000029
v -114.804955 -277.163849 -0.000032
v -58.527058 -294.235565 -0.000016
v -57.402470 294.235565 -11.418078
v -112.598999 277.163849 -22.397367
v -163.468460 249.440872 -32.515926
v -208.055832 212.132034 -41.384914
v -244.647781 166.671066 -48.663490
v -271.838104 114.805038 -54.072002
v -288.581818 58.527096 -57.402557
v -294.235443 0.000000 -58.527088
v -288.581818 -58.527096 -57.402557
v -271.838104 -114.805038 -54.072002
v -244.647781 -166.671066 -48.663490
v -208.055832 -212.132034 -41.384914
v -163.468460 -249.440872 -32.515926
v -112.598999 -277.163849 -22.397367
v -57.402470 -294.235565 -11.418078
v -54.071938 294.235565 -22.397350
v -106.065933 277.163849 -43.933983
v -153.983917 249.440872 -63.782257
v -195.984299 212.132034 -81.179398
v -230.453156 166.671066 -95.456848
v -256.065887 114.805038 -106.066010
v -271.838135 58.527096 -112.599106
v -277.163727 0.000000 -114.804993
v -271.838135 -58.527096 -112.599106
v -256.065887 -114.805038 -106.066010
v -230.453156 -166.671066 -95.456848
v -195.984299 -212.132034 -81.179398
v -153.983917 -249.440872 -63.782257
v -106.065933 -277.163849 -43.933983
v -54.071938 -294.235565 -22.397350
v -48.663452 294.235565 -32.515903
v -95.456802 277.163849 -63.782242
v -138.581863 249.440872 -92.597473
v -176.381195 212.132034 -117.854195
v -207.402344 166.671066 -138.581848
v -230.453186 114.805038 -153.983948
v -244.647842 58.527096 -163.468536
v -249.440765 0.000000 -166.671005
v -244.647842 -58.527096 -163.468536
v -230.453186 -114.805038 -153.983948
v -207.402344 -166.671066 -138.581848
v -176.381195 -212.132034 -117.854195
v -138.581863 -249.440872 -92.597473
v -95.456802 -277.163849 -63.782242
v -48.663452 -294.235565 -32.515903
v -41.384857 294.235565 -41.384888
v -81.179329 277.163849 -81.179382
v -117.854179 249.440872 -117.854218
v -149.999863 212.132034 -149.999908
v -176.381180 166.671066 -176.381226
v -195.984314 114.805038 -195.984375
v -208.055862 58.527096 -208.055954
v -212.131927 0.000000 -212.131943
v -208.055862 -58.527096 -208.055954
v -195.984314 -114.805038 -195.984375
v -176.381180 -166.671066 -176.381226
v -149.999863 -212.132034 -149.999908
v -117.854179 -249.440872 -117.854218
v -81.179329 -277.163849 -81.179382
v -41.384857 -294.235565 -41.384888
v -32.515865 294.235565 -48.663471
v -63.782181 277.163849 -95.456841
v -92.597420 249.440872 -138.581879
v -117.854126 212.132034 -176.381210
v -138.581787 166.671066 -207.402374
v -153.983871 114.805038 -230.453217
v -163.468414 58.527096 -244.647903
v -166.670975 0.000000 -249.440765
v -163.468414 -58.527096 -244.647903
v -153.983871 -114.805038 -230.453217
v -138.581787 -166.671066 -207.402374
v -117.854126 -212.132034 -176.381210
v -92.597420 -249.440872 -138.581879
v -63.782181 -277.163849 -95.456841
v -32.515865 -294.235565 -48.663471
v -22.397308 294.235565 -54.071945
v -43.933914 277.163849 -106.065941
v -63.782200 249.440872 -153.983932
v -81.179321 212.132034 -195.984299
v -95.456779 166.671066 -230.453156
v -106.065918 114.805038 -256.065887
v -112.598969 58.527096 -271.838165
v -114.804947 0.000000 -277.163727
v -112.598969 -58.527096 -271.838165
v -106.065918 -114.805038 -256.065887
v -95.456779 -166.671066 -230.453156
v -81.179321 -212.132034 -195.984299
v -63.782200 -249.440872 -153.983932
v -43.933914 -277.163849 -106.065941
v -22.397308 -294.235565 -54.071945
v -11.418036 294.235565 -57.402466
v -22.397299 277.163849 -112.598991
v -32.515865 249.440872 -163.468460
v -41.384842 212.132034 -208.055801
v -48.663425 166.671066 -244.647751
v -54.071907 114.805038 -271.838074
v -57.402412 58.527096 -288.581848
v -58.527039 0.000000 -294.235443
v -57.402412 -58.527096 -288.581848
v -54.071907 -114.805038 -271.838074
v -48.663425 -166.671066 -244.647751
v -41.384842 -212.132034 -208.055801
v -32.515865 -249.440872 -163.468460
v -22.397299 -277.163849 -112.598991
v -11.418036 -294.235565 -57.402466
v 0.000034 277.163849 -114.804932
v 0.000038 166.671066 -249.440659
v 0.000031 -212.132034 -212.131836
v 0.000034 -249.440872 -166.670990
v 0.000034 -277.163849 -114.804932
v 0.000024 -294.235565 -58.527039
vn -0.0464 0.8810 0.4709
vn -0.0938 -0.2890 0.9527
vn -0.0286 0.9565 0.2902
vn -0.0975 -0.0976 0.9904
vn -0.0097 -0.9951 0.0980
vn -0.0097 0.9951 0.0980
vn -0.0975 0.0976 0.9904
vn -0.0286 -0.9565 0.2902
vn -0.0938 0.2890 0.9527
vn -0.0464 -0.8810 0.4709
vn -0.0865 0.4696 0.8786
vn -0.0624 -0.7715 0.6332
vn -0.0759 0.6326 0.7708
vn -0.0759 -0.6326 0.7708
vn -0.0624 0.7715 0.6332
vn -0.0865 -0.4696 0.8786
vn -0.1847 0.7715 0.6088
vn -0.2563 -0.4696 0.8448
vn -0.1374 0.8810 0.4528
vn -0.2779 -0.2890 0.9161
vn -0.0846 0.9565 0.2790
vn -0.2889 -0.0975 0.9524
vn -0.0286 -0.9951 0.0942
vn -0.0286 0.9951 0.0942
vn -0.2889 0.0975 0.9524
vn -0.0846 -0.9565 0.2790
vn -0.2779 0.2890 0.9161
vn -0.1374 -0.8810 0.4528
vn -0.2563 0.4696 0.8448
vn -0.1847 -0.7715 0.6088
vn -0.2248 0.6326 0.7412
vn -0.2248 -0.6326 0.7412
vn -0.1374 -0.9565 0.2571
vn -0.4513 0.2890 0.8443
vn -0.2231 -0.8810 0.4173
vn -0.4162 0.4696 0.7786
vn -0.2999 -0.7715 0.5611
vn -0.3651 0.6326 0.6831
vn -0.3651 -0.6326 0.6831
vn -0.2999 0.7715 0.5611
vn -0.4162 -0.4696 0.7786
vn -0.2231 0.8810 0.4173
vn -0.4513 -0.2890 0.8443
vn -0.1374 0.9565 0.2571
vn -0.4691 -0.0976 0.8777
vn -0.0464 -0.9951 0.0869
vn -0.0464 0.9951 0.0869
vn -0.4691 0.0976 0.8777
vn -0.5601 -0.4696 0.6825
vn -0.3002 0.8810 0.3658
vn -0.6073 -0.2890 0.7400
vn -0.1850 0.9565 0.2254
vn -0.6314 -0.0976 0.7693
vn -0.0625 -0.9951 0.0761
vn -0.0625 0.9951 0.0761
vn -0.6314 0.0976 0.7693
vn -0.1850 -0.9565 0.2254
vn -0.6073 0.2890 0.7400
vn -0.3002 -0.8810 0.3658
vn -0.5601 0.4696 0.6825
vn -0.4036 -0.7715 0.4918
vn -0.4913 0.6326 0.5987
vn -0.4913 -0.6326 0.5987
vn -0.4036 0.7715 0.4918
vn -0.7400 0.2890 0.6073
vn -0.3658 -0.8810 0.3002
vn -0.6825 0.4696 0.5601
vn -0.4918 -0.7715 0.4036
vn -0.5987 0.6326 0.4913
vn -0.5987 -0.6326 0.4913
vn -0.4918 0.7715 0.4036
vn -0.6825 -0.4696 0.5601
vn -0.3658 0.8810 0.3002
vn -0.7400 -0.2890 0.6073
vn -0.2254 0.9565 0.1850
vn -0.7693 -0.0976 0.6314
vn -0.0761 -0.9951 0.0625
vn -0.0761 0.9951 0.0625
vn -0.7693 0.0975 0.6314
vn -0.2254 -0.9565 0.1850
vn -0.4173 0.8810 0.2230
vn -0.8443 -0.2890 0.4513
vn -0.2571 0.9565 0.1374
vn -0.8777 -0.0976 0.4691
vn -0.0869 -0.9951 0.0464
vn -0.0869 0.9951 0.0464
vn -0.8777 0.0976 0.4691
vn -0.2571 -0.9565 0.1374
vn -0.8443 0.2890 0.4513
vn -0.4173 -0.8810 0.2230
vn -0.7786 0.4696 0.4162
vn -0.5611 -0.7715 0.2999
vn -0.6831 0.6326 0.3651
vn -0.6831 -0.6326 0.3651
vn -0.5611 0.7715 0.2999
vn -0.7786 -0.4696 0.4162
vn -0.8448 0.4696 0.2563
vn -0.6088 -0.7715 0.1847
vn -0.7412 0.6326 0.2248
vn -0.7412 -0.6326 0.2248
vn -0.6088 0.7715 0.1847
vn -0.8448 -0.4696 0.2563
vn -0.4528 0.8810 0.1374
vn -0.9161 -0.2890 0.2779
vn -0.2790 0.9565 0.0846
vn -0.9524 -0.0976 0.2889
vn -0.0942 -0.9951 0.0286
vn -0.0942 0.9951 0.0286
vn -0.9524 0.0976 0.2889
vn -0.2790 -0.9565 0.0846
vn -0.9161 0.2890 0.2779
vn -0.4528 -0.8810 0.1374
vn -0.2902 0.9565 0.0286
vn -0.9904 -0.0976 0.0975
vn -0.0980 -0.9951 0.0097
vn -0.0980 0.9951 0.0097
vn -0.9904 0.0976 0.0975
vn -0.2902 -0.9565 0.0286
vn -0.9527 0.2890 0.0938
vn -0.4709 -0.8810 0.0464
vn -0.8786 0.4696 0.0865
vn -0.6332 -0.7715 0.0624
vn -0.7708 0.6326 0.0759
vn -0.7708 -0.6326 0.0759
vn -0.6332 0.7715 0.0624
vn -0.8786 -0.4696 0.0865
vn -0.4709 0.8810 0.0464
vn -0.9527 -0.2890 0.0938
vn -0.6332 -0.7715 -0.0624
vn -0.7708 0.6326 -0.0759
vn -0.7708 -0.6326 -0.0759
vn -0.6332 0.7715 -0.0624
vn -0.8786 -0.4696 -0.0865
vn -0.4709 0.8810 -0.0464
vn -0.9527 -0.2890 -0.0938
vn -0.2902 0.9565 -0.0286
vn -0.9904 -0.0975 -0.0975
vn -0.0980 -0.9951 -0.0097
vn -0.0980 0.9951 -0.0097
vn -0.9904 0.0975 -0.0975
vn -0.2902 -0.9565 -0.0286
vn -0.9527 0.2890 -0.0938
vn -0.4709 -0.8810 -0.0464
vn -0.8786 0.4696 -0.0865
vn -0.9524 -0.0975 -0.2889
vn -0.0942 -0.9951 -0.0286
vn -0.0942 0.9951 -0.0286
vn -0.9524 0.0975 -0.2889
vn -0.2790 -0.9565 -0.0846
vn -0.9161 0.2890 -0.2779
vn -0.4528 -0.8810 -0.1374
vn -0.8448 0.4696 -0.2563
vn -0.6088 -0.7715 -0.1847
vn -0.7412 0.6326 -0.2248
vn -0.7412 -0.6326 -0.2248
vn -0.6088 0.7715 -0.1847
vn -0.8448 -0.4696 -0.2563
vn -0.4528 0.8810 -0.1374
vn -0.9161 -0.2890 -0.2779
vn -0.2790 0.9565 -0.0846
vn -0.6831 0.6326 -0.3651
vn -0.6831 -0.6326 -0.3651
vn -0.5611 0.7715 -0.2999
vn -0.7786 -0.4696 -0.4162
vn -0.4173 0.8810 -0.2231
vn -0.8443 -0.2890 -0.4513
vn -0.2571 0.9565 -0.1374
vn -0.8777 -0.0975 -0.4691
vn -0.0869 -0.9951 -0.0464
vn -0.0869 0.9951 -0.0464
vn -0.8777 0.0975 -0.4691
vn -0.2571 -0.9565 -0.1374
vn -0.8443 0.2890 -0.4513
vn -0.4173 -0.8810 -0.2230
vn -0.7786 0.4696 -0.4162
vn -0.5611 -0.7715 -0.2999
vn -0.0761 -0.9951 -0.0625
vn -0.0761 0.9951 -0.0625
vn -0.7693 0.0975 -0.6314
vn -0.2254 -0.9565 -0.1850
vn -0.7400 0.2890 -0.6073
vn -0.3658 -0.8810 -0.3002
vn -0.6825 0.4696 -0.5601
vn -0.4918 -0.7715 -0.4036
vn -0.5987 0.6326 -0.4913
vn -0.5987 -0.6326 -0.4913
vn -0.4918 0.7715 -0.4036
vn -0.6825 -0.4696 -0.5601
vn -0.3658 0.8810 -0.3002
vn -0.7400 -0.2890 -0.6073
vn -0.2254 0.9565 -0.1850
vn -0.7693 -0.0975 -0.6314
vn -0.4913 -0.6326 -0.5987
vn -0.4036 0.7715 -0.4918
vn -0.5601 -0.4696 -0.6825
vn -0.3002 0.8810 -0.3658
vn -0.6073 -0.2890 -0.7400
vn -0.1850 0.9565 -0.2254
vn -0.6314 -0.0975 -0.7693
vn -0.0625 -0.9951 -0.0761
vn -0.0625 0.9951 -0.0761
vn -0.6314 0.0976 -0.7693
vn -0.1850 -0.9565 -0.2254
vn -0.6073 0.2890 -0.7400
vn -0.3002 -0.8810 -0.3658
vn -0.5601 0.4696 -0.6825
vn -0.4036 -0.7715 -0.4918
vn -0.4913 0.6326 -0.5987
vn -0.4691 0.0976 -0.8777
vn -0.1374 -0.9565 -0.2571
vn -0.4513 0.2890 -0.8443
vn -0.2230 -0.8810 -0.4173
vn -0.4162 0.4696 -0.7786
vn -0.2999 -0.7715 -0.5611
vn -0.3651 0.6326 -0.6831
vn -0.3651 -0.6326 -0.6831
vn -0.2999 0.7715 -0.5611
vn -0.4162 -0.4696 -0.7786
vn -0.2230 0.8810 -0.4173
vn -0.4513 -0.2890 -0.8443
vn -0.1374 0.9565 -0.2571
vn -0.4691 -0.0976 -0.8777
vn -0.0464 -0.9951 -0.0869
vn -0.0464 0.9951 -0.0869
vn -0.1847 0.7715 -0.6088
vn -0.2563 -0.4696 -0.8448
vn -0.1374 0.8810 -0.4528
vn -0.2779 -0.2890 -0.9161
vn -0.0846 0.9565 -0.2790
vn -0.2889 -0.0976 -0.9524
vn -0.0286 -0.9951 -0.0942
vn -0.0286 0.9951 -0.0942
vn -0.2889 0.0976 -0.9524
vn -0.0846 -0.9565 -0.2790
vn -0.2779 0.2890 -0.9161
vn -0.1374 -0.8810 -0.4528
vn -0.2563 0.4696 -0.8448
vn -0.1847 -0.7715 -0.6088
vn -0.2248 0.6326 -0.7412
vn -0.2248 -0.6326 -0.7412
vn -0.0938 0.2890 -0.9527
vn -0.0464 -0.8810 -0.4709
vn -0.0865 0.4696 -0.8786
vn -0.0624 -0.7715 -0.6332
vn -0.0759 0.6326 -0.7708
vn -0.0759 -0.6326 -0.7708
vn -0.0624 0.7715 -0.6332
vn -0.0865 -0.4696 -0.8786
vn -0.0464 0.8810 -0.4709
vn -0.0938 -0.2890 -0.9527
vn -0.0286 0.9565 -0.2902
vn -0.0975 -0.0976 -0.9904
vn -0.0097 -0.9951 -0.0980
vn -0.0097 0.9951 -0.0980
vn -0.0975 0.0976 -0.9904
vn -0.0286 -0.9565 -0.2902
vn 0.0464 0.8810 -0.4709
vn 0.0938 -0.2890 -0.9527
vn 0.0286 0.9565 -0.2902
vn 0.0975 -0.0976 -0.9904
vn 0.0097 -0.9951 -0.0980
vn 0.0097 0.9951 -0.0980
vn 0.0975 0.0976 -0.9904
vn 0.0286 -0.9565 -0.2902
vn 0.0938 0.2890 -0.9527
vn 0.0464 -0.8810 -0.4709
vn 0.0865 0.4696 -0.8786
vn 0.0624 -0.7715 -0.6332
vn 0.0759 0.6326 -0.7708
vn 0.0759 -0.6326 -0.7708
vn 0.0624 0.7715 -0.6332
vn 0.0865 -0.4696 -0.8786
vn 0.1374 -0.8810 -0.4528
vn 0.2563 0.4696 -0.8448
vn 0.1847 -0.7715 -0.6088
vn 0.2248 0.6326 -0.7412
vn 0.2248 -0.6326 -0.7412
vn 0.1847 0.7715 -0.6088
vn 0.2563 -0.4696 -0.8448
vn 0.1374 0.8810 -0.4528
vn 0.2779 -0.2890 -0.9161
vn 0.0846 0.9565 -0.2790
vn 0.2889 -0.0976 -0.9524
vn 0.0286 -0.9951 -0.0942
vn 0.0286 0.9951 -0.0942
vn 0.2889 0.0976 -0.9524
vn 0.0846 -0.9565 -0.2790
vn 0.2779 0.2890 -0.9161
vn 0.4513 -0.2890 -0.8443
vn 0.1374 0.9565 -0.2571
vn 0.4691 -0.0975 -0.8777
vn 0.0464 -0.9951 -0.0869
vn 0.0464 0.9951 -0.0869
vn 0.4691 0.0975 -0.8777
vn 0.1374 -0.9565 -0.2571
vn 0.4513 0.2890 -0.8443
vn 0.2230 -0.8810 -0.4173
vn 0.4162 0.4696 -0.7786
vn 0.2999 -0.7715 -0.5611
vn 0.3651 0.6326 -0.6831
vn 0.3651 -0.6326 -0.6831
vn 0.2999 0.7715 -0.5611
vn 0.4162 -0.4696 -0.7786
vn 0.2230 0.8810 -0.4173
vn 0.5601 0.4696 -0.6825
vn 0.4036 -0.7715 -0.4918
vn 0.4913 0.6326 -0.5987
vn 0.4913 -0.6326 -0.5987
vn 0.4036 0.7715 -0.4918
vn 0.5601 -0.4696 -0.6825
vn 0.3002 0.8810 -0.3658
vn 0.6073 -0.2890 -0.7400
vn 0.1850 0.9565 -0.2254
vn 0.6314 -0.0975 -0.7693
vn 0.0625 -0.9951 -0.0761
vn 0.0625 0.9951 -0.0761
vn 0.6314 0.0975 -0.7693
vn 0.1850 -0.9565 -0.2254
vn 0.6073 0.2890 -0.7400
vn 0.3002 -0.8810 -0.3658
vn 0.2254 0.9565 -0.1850
vn 0.7693 -0.0975 -0.6314
vn 0.0761 -0.9951 -0.0625
vn 0.0761 0.9951 -0.0625
vn 0.7693 0.0975 -0.6314
vn 0.2254 -0.9565 -0.1850
vn 0.7400 0.2890 -0.6073
vn 0.3658 -0.8810 -0.3002
vn 0.6825 0.4696 -0.5601
vn 0.4918 -0.7715 -0.4036
vn 0.5987 0.6326 -0.4913
vn 0.5987 -0.6326 -0.4913
vn 0.4918 0.7715 -0.4036
vn 0.6825 -0.4696 -0.5601
vn 0.3658 0.8810 -0.3002
vn 0.7400 -0.2890 -0.6073
vn 0.5611 -0.7715 -0.2999
vn 0.6831 0.6326 -0.3651
vn 0.6831 -0.6326 -0.3651
vn 0.5611 0.7715 -0.2999
vn 0.7786 -0.4696 -0.4162
vn 0.4173 0.8810 -0.2230
vn 0.8443 -0.2890 -0.4513
vn 0.2571 0.9565 -0.1374
vn 0.8777 -0.0975 -0.4691
vn 0.0869 -0.9951 -0.0464
vn 0.0869 0.9951 -0.0464
vn 0.8777 0.0975 -0.4691
vn 0.2571 -0.9565 -0.1374
vn 0.8443 0.2890 -0.4513
vn 0.4173 -0.8810 -0.2230
vn 0.7786 0.4696 -0.4162
vn 0.9524 -0.0975 -0.2889
vn 0.0942 -0.9951 -0.0286
vn 0.0942 0.9951 -0.0286
vn 0.9524 0.0975 -0.2889
vn 0.2790 -0.9565 -0.0846
vn 0.9161 0.2890 -0.2779
vn 0.4528 -0.8810 -0.1374
vn 0.8448 0.4696 -0.2563
vn 0.6088 -0.7715 -0.1847
vn 0.7412 0.6326 -0.2248
vn 0.7412 -0.6326 -0.2248
vn 0.6088 0.7715 -0.1847
vn 0.8448 -0.4696 -0.2563
vn 0.4528 0.8810 -0.1374
vn 0.9161 -0.2890 -0.2779
vn 0.2790 0.9565 -0.0846
vn 0.7708 0.6326 -0.0759
vn 0.7708 -0.6326 -0.0759
vn 0.6332 0.7715 -0.0624
vn 0.8786 -0.4696 -0.0865
vn 0.4709 0.8810 -0.0464
vn 0.9527 -0.2890 -0.0938
vn 0.2902 0.9565 -0.0286
vn 0.9904 -0.0975 -0.0976
vn 0.0980 -0.9951 -0.0097
vn 0.0980 0.9951 -0.0097
vn 0.9904 0.0975 -0.0976
vn 0.2902 -0.9565 -0.0286
vn 0.9527 0.2890 -0.0938
vn 0.4709 -0.8810 -0.0464
vn 0.8786 0.4696 -0.0865
vn 0.6332 -0.7715 -0.0624
vn 0.0980 0.9951 0.0097
vn 0.9904 0.0975 0.0976
vn 0.2902 -0.9565 0.0286
vn 0.9527 0.2890 0.0938
vn 0.4709 -0.8810 0.0464
vn 0.8786 0.4696 0.0865
vn 0.6332 -0.7715 0.0624
vn 0.7708 0.6326 0.0759
vn 0.7708 -0.6326 0.0759
vn 0.6332 0.7715 0.0624
vn 0.8786 -0.4696 0.0865
vn 0.4709 0.8810 0.0464
vn 0.9527 -0.2890 0.0938
vn 0.2902 0.9565 0.0286
vn 0.9904 -0.0975 0.0976
vn 0.0980 -0.9951 0.0097
vn 0.6088 0.7715 0.1847
vn 0.8448 -0.4696 0.2563
vn 0.4528 0.8810 0.1374
vn 0.9161 -0.2890 0.2779
vn 0.2790 0.9565 0.0846
vn 0.9524 -0.0975 0.2889
vn 0.0942 -0.9951 0.0286
vn 0.0942 0.9951 0.0286
vn 0.9524 0.0975 0.2889
vn 0.2790 -0.9565 0.0846
vn 0.9161 0.2890 0.2779
vn 0.4528 -0.8810 0.1374
vn 0.8448 0.4696 0.2563
vn 0.6088 -0.7715 0.1847
vn 0.7412 0.6326 0.2248
vn 0.7412 -0.6326 0.2248
vn 0.2571 -0.9565 0.1374
vn 0.8443 0.2890 0.4513
vn 0.4173 -0.8810 0.2231
vn 0.7786 0.4696 0.4162
vn 0.5611 -0.7715 0.2999
vn 0.6831 0.6326 0.3651
vn 0.6831 -0.6326 0.3651
vn 0.5611 0.7715 0.2999
vn 0.7786 -0.4696 0.4162
vn 0.4173 0.8810 0.2231
vn 0.8443 -0.2890 0.4513
vn 0.2571 0.9565 0.1374
vn 0.8777 -0.0975 0.4691
vn 0.0869 -0.9951 0.0464
vn 0.0869 0.9951 0.0464
vn 0.8777 0.0975 0.4691
vn 0.6825 -0.4696 0.5601
vn 0.3658 0.8810 0.3002
vn 0.7400 -0.2890 0.6073
vn 0.2254 0.9565 0.1850
vn 0.7693 -0.0975 0.6314
vn 0.0761 -0.9951 0.0625
vn 0.0761 0.9951 0.0625
vn 0.7693 0.0975 0.6314
vn 0.2254 -0.9565 0.1850
vn 0.7400 0.2890 0.6073
vn 0.3658 -0.8810 0.3002
vn 0.6825 0.4696 0.5601
vn 0.4918 -0.7715 0.4036
vn 0.5987 0.6326 0.4913
vn 0.5987 -0.6326 0.4913
vn 0.4918 0.7715 0.4036
vn 0.6073 0.2890 0.7400
vn 0.3002 -0.8810 0.3658
vn 0.5601 0.4696 0.6825
vn 0.4036 -0.7715 0.4918
vn 0.4913 0.6326 0.5987
vn 0.4913 -0.6326 0.5987
vn 0.4036 0.7715 0.4918
vn 0.5601 -0.4696 0.6825
vn 0.3002 0.8810 0.3658
vn 0.6073 -0.2890 0.7400
vn 0.1850 0.9565 0.2254
vn 0.6314 -0.0975 0.7693
vn 0.0625 -0.9951 0.0761
vn 0.0625 0.9951 0.0761
vn 0.6314 0.0975 0.7693
vn 0.1850 -0.9565 0.2254
vn 0.2230 0.8810 0.4173
vn 0.4513 -0.2890 0.8443
vn 0.1374 0.9565 0.2571
vn 0.4691 -0.0975 0.8777
vn 0.0464 -0.9951 0.0869
vn 0.0464 0.9951 0.0869
vn 0.4691 0.0975 0.8777
vn 0.1374 -0.9565 0.2571
vn 0.4513 0.2890 0.8443
vn 0.2230 -0.8810 0.4173
vn 0.4162 0.4696 0.7786
vn 0.2999 -0.7715 0.5611
vn 0.3651 0.6326 0.6831
vn 0.3651 -0.6326 0.6831
vn 0.2999 0.7715 0.5611
vn 0.4162 -0.4696 0.7786
vn 0.1374 -0.8810 0.4528
vn 0.2563 0.4696 0.8448
vn 0.1847 -0.7715 0.6088
vn 0.2248 0.6326 0.7412
vn 0.2248 -0.6326 0.7412
vn 0.1847 0.7715 0.6088
vn 0.2563 -0.4696 0.8448
vn 0.1374 0.8810 0.4528
vn 0.2779 -0.2890 0.9161
vn 0.0846 0.9565 0.2790
vn 0.2889 -0.0975 0.9524
vn 0.0286 -0.9951 0.0942
vn 0.0286 0.9951 0.0942
vn 0.2889 0.0975 0.9524
vn 0.0846 -0.9565 0.2790
vn 0.2779 0.2890 0.9161
vn 0.0938 -0.2890 0.9527
vn 0.0286 0.9565 0.2902
vn 0.0976 -0.0975 0.9904
vn 0.0097 -0.9951 0.0980
vn 0.0097 0.9951 0.0980
vn 0.0976 0.0975 0.9904
vn 0.0286 -0.9565 0.2902
vn 0.0938 0.2890 0.9527
vn 0.0464 -0.8810 0.4709
vn 0.0865 0.4696 0.8786
vn 0.0624 -0.7715 0.6332
vn 0.0759 0.6326 0.7708
vn 0.0759 -0.6326 0.7708
vn 0.0624 0.7715 0.6332
vn 0.0865 -0.4696 0.8786
vn 0.0464 0.8810 0.4709
vt 0.750000 0.125000
vt 0.718750 0.125000
vt 0.718750 0.187500
vt 0.750000 0.187500
vt 0.750000 0.562500
vt 0.718750 0.562500
vt 0.718750 0.625000
vt 0.750000 0.625000
vt 0.750000 0.062500
vt 0.718750 0.062500
vt 0.750000 0.500000
vt 0.718750 0.500000
vt 0.750000 0.937500
vt 0.718750 0.937500
vt 0.734375 1.000000
vt 0.734375 0.000000
vt 0.750000 0.437500
vt 0.718750 0.437500
vt 0.750000 0.875000
vt 0.718750 0.875000
vt 0.750000 0.375000
vt 0.718750 0.375000
vt 0.750000 0.812500
vt 0.718750 0.812500
vt 0.750000 0.312500
vt 0.718750 0.312500
vt 0.750000 0.750000
vt 0.718750 0.750000
vt 0.750000 0.250000
vt 0.718750 0.250000
vt 0.750000 0.687500
vt 0.718750 0.687500
vt 0.687500 0.187500
vt 0.687500 0.250000
vt 0.687500 0.625000
vt 0.687500 0.687500
vt 0.687500 0.125000
vt 0.687500 0.562500
vt 0.687500 0.062500
vt 0.687500 0.500000
vt 0.687500 0.937500
vt 0.703125 1.000000
vt 0.703125 0.000000
vt 0.687500 0.437500
vt 0.687500 0.875000
vt 0.687500 0.375000
vt 0.687500 0.812500
vt 0.687500 0.312500
vt 0.687500 0.750000
vt 0.656250 0.875000
vt 0.656250 0.937500
vt 0.656250 0.375000
vt 0.656250 0.437500
vt 0.656250 0.812500
vt 0.656250 0.312500
vt 0.656250 0.750000
vt 0.656250 0.250000
vt 0.656250 0.687500
vt 0.656250 0.187500
vt 0.656250 0.625000
vt 0.656250 0.125000
vt 0.656250 0.562500
vt 0.656250 0.062500
vt 0.656250 0.500000
vt 0.671875 1.000000
vt 0.671875 0.000000
vt 0.625000 0.625000
vt 0.625000 0.687500
vt 0.625000 0.125000
vt 0.625000 0.187500
vt 0.625000 0.562500
vt 0.625000 0.062500
vt 0.625000 0.500000
vt 0.625000 0.937500
vt 0.640625 1.000000
vt 0.640625 0.000000
vt 0.625000 0.437500
vt 0.625000 0.875000
vt 0.625000 0.375000
vt 0.625000 0.812500
vt 0.625000 0.312500
vt 0.625000 0.750000
vt 0.625000 0.250000
vt 0.593750 0.375000
vt 0.593750 0.437500
vt 0.593750 0.812500
vt 0.593750 0.875000
vt 0.593750 0.312500
vt 0.593750 0.750000
vt 0.593750 0.250000
vt 0.593750 0.687500
vt 0.593750 0.187500
vt 0.593750 0.625000
vt 0.593750 0.125000
vt 0.593750 0.562500
vt 0.593750 0.062500
vt 0.593750 0.500000
vt 0.593750 0.937500
vt 0.609375 1.000000
vt 0.609375 0.000000
vt 0.562500 0.125000
vt 0.562500 0.187500
vt 0.562500 0.562500
vt 0.562500 0.625000
vt 0.562500 0.062500
vt 0.562500 0.500000
vt 0.562500 0.937500
vt 0.578125 1.000000
vt 0.578125 0.000000
vt 0.562500 0.437500
vt 0.562500 0.875000
vt 0.562500 0.375000
vt 0.562500 0.812500
vt 0.562500 0.312500
vt 0.562500 0.750000
vt 0.562500 0.250000
vt 0.562500 0.687500
vt 0.531250 0.312500
vt 0.531250 0.375000
vt 0.531250 0.750000
vt 0.531250 0.812500
vt 0.531250 0.250000
vt 0.531250 0.687500
vt 0.531250 0.187500
vt 0.531250 0.625000
vt 0.531250 0.125000
vt 0.531250 0.562500
vt 0.531250 0.062500
vt 0.531250 0.500000
vt 0.531250 0.937500
vt 0.546875 1.000000
vt 0.546875 0.000000
vt 0.531250 0.437500
vt 0.531250 0.875000
vt 0.500000 0.062500
vt 0.500000 0.125000
vt 0.500000 0.500000
vt 0.500000 0.562500
vt 0.500000 0.937500
vt 0.515625 1.000000
vt 0.515625 0.000000
vt 0.500000 0.437500
vt 0.500000 0.875000
vt 0.500000 0.375000
vt 0.500000 0.812500
vt 0.500000 0.312500
vt 0.500000 0.750000
vt 0.500000 0.250000
vt 0.500000 0.687500
vt 0.500000 0.187500
vt 0.500000 0.625000
vt 0.468750 0.750000
vt 0.468750 0.812500
vt 0.468750 0.250000
vt 0.468750 0.312500
vt 0.468750 0.687500
vt 0.468750 0.187500
vt 0.468750 0.625000
vt 0.468750 0.125000
vt 0.468750 0.562500
vt 0.468750 0.062500
vt 0.468750 0.500000
vt 0.468750 0.937500
vt 0.484375 1.000000
vt 0.484375 0.000000
vt 0.468750 0.437500
vt 0.468750 0.875000
vt 0.468750 0.375000
vt 0.437500 0.500000
vt 0.437500 0.562500
vt 0.437500 0.937500
vt 0.453125 1.000000
vt 0.453125 0.000000
vt 0.437500 0.062500
vt 0.437500 0.437500
vt 0.437500 0.875000
vt 0.437500 0.375000
vt 0.437500 0.812500
vt 0.437500 0.312500
vt 0.437500 0.750000
vt 0.437500 0.250000
vt 0.437500 0.687500
vt 0.437500 0.187500
vt 0.437500 0.625000
vt 0.437500 0.125000
vt 0.406250 0.250000
vt 0.406250 0.312500
vt 0.406250 0.687500
vt 0.406250 0.750000
vt 0.406250 0.187500
vt 0.406250 0.625000
vt 0.406250 0.125000
vt 0.406250 0.562500
vt 0.406250 0.062500
vt 0.406250 0.500000
vt 0.406250 0.937500
vt 0.421875 1.000000
vt 0.421875 0.000000
vt 0.406250 0.437500
vt 0.406250 0.875000
vt 0.406250 0.375000
vt 0.406250 0.812500
vt 0.375000 0.937500
vt 0.390625 1.000000
vt 0.390625 0.000000
vt 0.375000 0.062500
vt 0.375000 0.437500
vt 0.375000 0.500000
vt 0.375000 0.875000
vt 0.375000 0.375000
vt 0.375000 0.812500
vt 0.375000 0.312500
vt 0.375000 0.750000
vt 0.375000 0.250000
vt 0.375000 0.687500
vt 0.375000 0.187500
vt 0.375000 0.625000
vt 0.375000 0.125000
vt 0.375000 0.562500
vt 0.343750 0.687500
vt 0.343750 0.750000
vt 0.343750 0.187500
vt 0.343750 0.250000
vt 0.343750 0.625000
vt 0.343750 0.125000
vt 0.343750 0.562500
vt 0.343750 0.062500
vt 0.343750 0.500000
vt 0.343750 0.937500
vt 0.359375 1.000000
vt 0.359375 0.000000
vt 0.343750 0.437500
vt 0.343750 0.875000
vt 0.343750 0.375000
vt 0.343750 0.812500
vt 0.343750 0.312500
vt 0.312500 0.437500
vt 0.312500 0.500000
vt 0.312500 0.875000
vt 0.312500 0.937500
vt 0.312500 0.375000
vt 0.312500 0.812500
vt 0.312500 0.312500
vt 0.312500 0.750000
vt 0.312500 0.250000
vt 0.312500 0.687500
vt 0.312500 0.187500
vt 0.312500 0.625000
vt 0.312500 0.125000
vt 0.312500 0.562500
vt 0.312500 0.062500
vt 0.328125 1.000000
vt 0.328125 0.000000
vt 0.281250 0.187500
vt 0.281250 0.250000
vt 0.281250 0.625000
vt 0.281250 0.687500
vt 0.281250 0.125000
vt 0.281250 0.562500
vt 0.281250 0.062500
vt 0.281250 0.500000
vt 0.281250 0.937500
vt 0.296875 1.000000
vt 0.296875 0.000000
vt 0.281250 0.437500
vt 0.281250 0.875000
vt 0.281250 0.375000
vt 0.281250 0.812500
vt 0.281250 0.312500
vt 0.281250 0.750000
vt 0.250000 0.375000
vt 0.250000 0.437500
vt 0.250000 0.812500
vt 0.250000 0.875000
vt 0.250000 0.312500
vt 0.250000 0.750000
vt 0.250000 0.250000
vt 0.250000 0.687500
vt 0.250000 0.187500
vt 0.250000 0.625000
vt 0.250000 0.125000
vt 0.250000 0.562500
vt 0.250000 0.062500
vt 0.250000 0.500000
vt 0.250000 0.937500
vt 0.265625 1.000000
vt 0.265625 0.000000
vt 0.218750 0.125000
vt 0.218750 0.187500
vt 0.218750 0.562500
vt 0.218750 0.625000
vt 0.218750 0.062500
vt 0.218750 0.500000
vt 0.218750 0.937500
vt 0.234375 1.000000
vt 0.234375 0.000000
vt 0.218750 0.437500
vt 0.218750 0.875000
vt 0.218750 0.375000
vt 0.218750 0.812500
vt 0.218750 0.312500
vt 0.218750 0.750000
vt 0.218750 0.250000
vt 0.218750 0.687500
vt 0.187500 0.812500
vt 0.187500 0.875000
vt 0.187500 0.312500
vt 0.187500 0.375000
vt 0.187500 0.750000
vt 0.187500 0.250000
vt 0.187500 0.687500
vt 0.187500 0.187500
vt 0.187500 0.625000
vt 0.187500 0.125000
vt 0.187500 0.562500
vt 0.187500 0.062500
vt 0.187500 0.500000
vt 0.187500 0.937500
vt 0.203125 1.000000
vt 0.203125 0.000000
vt 0.187500 0.437500
vt 0.156250 0.562500
vt 0.156250 0.625000
vt 0.156250 0.062500
vt 0.156250 0.125000
vt 0.156250 0.500000
vt 0.156250 0.937500
vt 0.171875 1.000000
vt 0.171875 0.000000
vt 0.156250 0.437500
vt 0.156250 0.875000
vt 0.156250 0.375000
vt 0.156250 0.812500
vt 0.156250 0.312500
vt 0.156250 0.750000
vt 0.156250 0.250000
vt 0.156250 0.687500
vt 0.156250 0.187500
vt 0.125000 0.312500
vt 0.125000 0.375000
vt 0.125000 0.750000
vt 0.125000 0.812500
vt 0.125000 0.250000
vt 0.125000 0.687500
vt 0.125000 0.187500
vt 0.125000 0.625000
vt 0.125000 0.125000
vt 0.125000 0.562500
vt 0.125000 0.062500
vt 0.125000 0.500000
vt 0.125000 0.937500
vt 0.140625 1.000000
vt 0.140625 0.000000
vt 0.125000 0.437500
vt 0.125000 0.875000
vt 0.093750 0.062500
vt 0.093750 0.125000
vt 0.093750 0.500000
vt 0.093750 0.562500
vt 0.093750 0.937500
vt 0.109375 1.000000
vt 0.109375 0.000000
vt 0.093750 0.437500
vt 0.093750 0.875000
vt 0.093750 0.375000
vt 0.093750 0.812500
vt 0.093750 0.312500
vt 0.093750 0.750000
vt 0.093750 0.250000
vt 0.093750 0.687500
vt 0.093750 0.187500
vt 0.093750 0.625000
vt 0.062500 0.750000
vt 0.062500 0.812500
vt 0.062500 0.250000
vt 0.062500 0.312500
vt 0.062500 0.687500
vt 0.062500 0.187500
vt 0.062500 0.625000
vt 0.062500 0.125000
vt 0.062500 0.562500
vt 0.062500 0.062500
vt 0.062500 0.500000
vt 0.062500 0.937500
vt 0.078125 1.000000
vt 0.078125 0.000000
vt 0.062500 0.437500
vt 0.062500 0.875000
vt 0.062500 0.375000
vt 0.031250 0.500000
vt 0.031250 0.562500
vt 0.031250 0.937500
vt 0.046875 1.000000
vt 0.046875 0.000000
vt 0.031250 0.062500
vt 0.031250 0.437500
vt 0.031250 0.875000
vt 0.031250 0.375000
vt 0.031250 0.812500
vt 0.031250 0.312500
vt 0.031250 0.750000
vt 0.031250 0.250000
vt 0.031250 0.687500
vt 0.031250 0.187500
vt 0.031250 0.625000
vt 0.031250 0.125000
vt 0.000000 0.250000
vt 0.000000 0.312500
vt 0.000000 0.687500
vt 0.000000 0.750000
vt 0.000000 0.187500
vt 0.000000 0.625000
vt 0.000000 0.125000
vt 0.000000 0.562500
vt 0.000000 0.062500
vt 0.000000 0.500000
vt 0.000000 0.937500
vt 0.015625 1.000000
vt 0.015625 0.000000
vt 0.000000 0.437500
vt 0.000000 0.875000
vt 0.000000 0.375000
vt 0.000000 0.812500
vt 0.984375 0.000000
vt 0.968750 0.062500
vt 1.000000 0.062500
vt 1.000000 0.437500
vt 0.968750 0.437500
vt 0.968750 0.500000
vt 1.000000 0.500000
vt 1.000000 0.875000
vt 0.968750 0.875000
vt 0.968750 0.937500
vt 1.000000 0.937500
vt 1.000000 0.375000
vt 0.968750 0.375000
vt 1.000000 0.812500
vt 0.968750 0.812500
vt 1.000000 0.312500
vt 0.968750 0.312500
vt 1.000000 0.750000
vt 0.968750 0.750000
vt 1.000000 0.250000
vt 0.968750 0.250000
vt 1.000000 0.687500
vt 0.968750 0.687500
vt 1.000000 0.187500
vt 0.968750 0.187500
vt 1.000000 0.625000
vt 0.968750 0.625000
vt 1.000000 0.125000
vt 0.968750 0.125000
vt 1.000000 0.562500
vt 0.968750 0.562500
vt 0.984375 1.000000
vt 0.937500 0.187500
vt 0.937500 0.250000
vt 0.937500 0.625000
vt 0.937500 0.687500
vt 0.937500 0.125000
vt 0.937500 0.562500
vt 0.937500 0.062500
vt 0.937500 0.500000
vt 0.937500 0.937500
vt 0.953125 1.000000
vt 0.953125 0.000000
vt 0.937500 0.437500
vt 0.937500 0.875000
vt 0.937500 0.375000
vt 0.937500 0.812500
vt 0.937500 0.312500
vt 0.937500 0.750000
vt 0.906250 0.875000
vt 0.906250 0.937500
vt 0.906250 0.375000
vt 0.906250 0.437500
vt 0.906250 0.812500
vt 0.906250 0.312500
vt 0.906250 0.750000
vt 0.906250 0.250000
vt 0.906250 0.687500
vt 0.906250 0.187500
vt 0.906250 0.625000
vt 0.906250 0.125000
vt 0.906250 0.562500
vt 0.906250 0.062500
vt 0.906250 0.500000
vt 0.921875 1.000000
vt 0.921875 0.000000
vt 0.875000 0.625000
vt 0.875000 0.687500
vt 0.875000 0.125000
vt 0.875000 0.187500
vt 0.875000 0.562500
vt 0.875000 0.062500
vt 0.875000 0.500000
vt 0.875000 0.937500
vt 0.890625 1.000000
vt 0.890625 0.000000
vt 0.875000 0.437500
vt 0.875000 0.875000
vt 0.875000 0.375000
vt 0.875000 0.812500
vt 0.875000 0.312500
vt 0.875000 0.750000
vt 0.875000 0.250000
vt 0.843750 0.375000
vt 0.843750 0.437500
vt 0.843750 0.812500
vt 0.843750 0.875000
vt 0.843750 0.312500
vt 0.843750 0.750000
vt 0.843750 0.250000
vt 0.843750 0.687500
vt 0.843750 0.187500
vt 0.843750 0.625000
vt 0.843750 0.125000
vt 0.843750 0.562500
vt 0.843750 0.062500
vt 0.843750 0.500000
vt 0.843750 0.937500
vt 0.859375 1.000000
vt 0.859375 0.000000
vt 0.812500 0.125000
vt 0.812500 0.187500
vt 0.812500 0.562500
vt 0.812500 0.625000
vt 0.812500 0.062500
vt 0.812500 0.500000
vt 0.812500 0.937500
vt 0.828125 1.000000
vt 0.828125 0.000000
vt 0.812500 0.437500
vt 0.812500 0.875000
vt 0.812500 0.375000
vt 0.812500 0.812500
vt 0.812500 0.312500
vt 0.812500 0.750000
vt 0.812500 0.250000
vt 0.812500 0.687500
vt 0.781250 0.812500
vt 0.781250 0.875000
vt 0.781250 0.312500
vt 0.781250 0.375000
vt 0.781250 0.750000
vt 0.781250 0.250000
vt 0.781250 0.687500
vt 0.781250 0.187500
vt 0.781250 0.625000
vt 0.781250 0.125000
vt 0.781250 0.562500
vt 0.781250 0.062500
vt 0.781250 0.500000
vt 0.781250 0.937500
vt 0.796875 1.000000
vt 0.796875 0.000000
vt 0.781250 0.437500
vt 0.765625 1.000000
vt 0.765625 0.000000
s 0
f 481/1/1 23/2/1 22/3/1 480/4/1
f 5/5/2 16/6/2 15/7/2 4/8/2
f 482/9/3 24/10/3 23/2/3 481/1/3
f 6/11/4 17/12/4 16/6/4 5/5/4
f 1/13/5 10/14/5 311/15/5
f 250/16/6 24/10/6 482/9/6
f 7/17/7 18/18/7 17/12/7 6/11/7
f 477/19/8 11/20/8 10/14/8 1/13/8
f 8/21/9 19/22/9 18/18/9 7/17/9
f 2/23/10 12/24/10 11/20/10 477/19/10
f 9/25/11 20/26/11 19/22/11 8/21/11
f 3/27/12 13/28/12 12/24/12 2/23/12
f 479/29/13 21/30/13 20/26/13 9/25/13
f 478/31/14 14/32/14 13/28/14 3/27/14
f 480/4/15 22/3/15 21/30/15 479/29/15
f 4/8/16 15/7/16 14/32/16 478/31/16
f 22/3/17 37/33/17 36/34/17 21/30/17
f 15/7/18 30/35/18 29/36/18 14/32/18
f 23/2/19 38/37/19 37/33/19 22/3/19
f 16/6/20 31/38/20 30/35/20 15/7/20
f 24/10/21 39/39/21 38/37/21 23/2/21
f 17/12/22 32/40/22 31/38/22 16/6/22
f 10/14/23 25/41/23 311/42/23
f 250/43/24 39/39/24 24/10/24
f 18/18/25 33/44/25 32/40/25 17/12/25
f 11/20/26 26/45/26 25/41/26 10/14/26
f 19/22/27 34/46/27 33/44/27 18/18/27
f 12/24/28 27/47/28 26/45/28 11/20/28
f 20/26/29 35/48/29 34/46/29 19/22/29
f 13/28/30 28/49/30 27/47/30 12/24/30
f 21/30/31 36/34/31 35/48/31 20/26/31
f 14/32/32 29/36/32 28/49/32 13/28/32
f 26/45/33 41/50/33 40/51/33 25/41/33
f 34/46/34 49/52/34 48/53/34 33/44/34
f 27/47/35 42/54/35 41/50/35 26/45/35
f 35/48/36 50/55/36 49/52/36 34/46/36
f 28/49/37 43/56/37 42/54/37 27/47/37
f 36/34/38 51/57/38 50/55/38 35/48/38
f 29/36/39 44/58/39 43/56/39 28/49/39
f 37/33/40 52/59/40 51/57/40 36/34/40
f 30/35/41 45/60/41 44/58/41 29/36/41
f 38/37/42 53/61/42 52/59/42 37/33/42
f 31/38/43 46/62/43 45/60/43 30/35/43
f 39/39/44 54/63/44 53/61/44 38/37/44
f 32/40/45 47/64/45 46/62/45 31/38/45
f 25/41/46 40/51/46 311/65/46
f 250/66/47 54/63/47 39/39/47
f 33/44/48 48/53/48 47/64/48 32/40/48
f 45/60/49 60/67/49 59/68/49 44/58/49
f 53/61/50 68/69/50 67/70/50 52/59/50
f 46/62/51 61/71/51 60/67/51 45/60/51
f 54/63/52 69/72/52 68/69/52 53/61/52
f 47/64/53 62/73/53 61/71/53 46/62/53
f 40/51/54 55/74/54 311/75/54
f 250/76/55 69/72/55 54/63/55
f 48/53/56 63/77/56 62/73/56 47/64/56
f 41/50/57 56/78/57 55/74/57 40/51/57
f 49/52/58 64/79/58 63/77/58 48/53/58
f 42/54/59 57/80/59 56/78/59 41/50/59
f 50/55/60 65/81/60 64/79/60 49/52/60
f 43/56/61 58/82/61 57/80/61 42/54/61
f 51/57/62 66/83/62 65/81/62 50/55/62
f 44/58/63 59/68/63 58/82/63 43/56/63
f 52/59/64 67/70/64 66/83/64 51/57/64
f 64/79/65 79/84/65 78/85/65 63/77/65
f 57/80/66 72/86/66 71/87/66 56/78/66
f 65/81/67 80/88/67 79/84/67 64/79/67
f 58/82/68 73/89/68 72/86/68 57/80/68
f 66/83/69 81/90/69 80/88/69 65/81/69
f 59/68/70 74/91/70 73/89/70 58/82/70
f 67/70/71 82/92/71 81/90/71 66/83/71
f 60/67/72 75/93/72 74/91/72 59/68/72
f 68/69/73 83/94/73 82/92/73 67/70/73
f 61/71/74 76/95/74 75/93/74 60/67/74
f 69/72/75 84/96/75 83/94/75 68/69/75
f 62/73/76 77/97/76 76/95/76 61/71/76
f 55/74/77 70/98/77 311/99/77
f 250/100/78 84/96/78 69/72/78
f 63/77/79 78/85/79 77/97/79 62/73/79
f 56/78/80 71/87/80 70/98/80 55/74/80
f 83/94/81 98/101/81 97/102/81 82/92/81
f 76/95/82 91/103/82 90/104/82 75/93/82
f 84/96/83 99/105/83 98/101/83 83/94/83
f 77/97/84 92/106/84 91/103/84 76/95/84
f 70/98/85 85/107/85 311/108/85
f 250/109/86 99/105/86 84/96/86
f 78/85/87 93/110/87 92/106/87 77/97/87
f 71/87/88 86/111/88 85/107/88 70/98/88
f 79/84/89 94/112/89 93/110/89 78/85/89
f 72/86/90 87/113/90 86/111/90 71/87/90
f 80/88/91 95/114/91 94/112/91 79/84/91
f 73/89/92 88/115/92 87/113/92 72/86/92
f 81/90/93 96/116/93 95/114/93 80/88/93
f 74/91/94 89/117/94 88/115/94 73/89/94
f 82/92/95 97/102/95 96/116/95 81/90/95
f 75/93/96 90/104/96 89/117/96 74/91/96
f 95/114/97 110/118/97 109/119/97 94/112/97
f 88/115/98 103/120/98 102/121/98 87/113/98
f 96/116/99 111/122/99 110/118/99 95/114/99
f 89/117/100 104/123/100 103/120/100 88/115/100
f 97/102/101 112/124/101 111/122/101 96/116/101
f 90/104/102 105/125/102 104/123/102 89/117/102
f 98/101/103 113/126/103 112/124/103 97/102/103
f 91/103/104 106/127/104 105/125/104 90/104/104
f 99/105/105 114/128/105 113/126/105 98/101/105
f 92/106/106 107/129/106 106/127/106 91/103/106
f 85/107/107 100/130/107 311/131/107
f 250/132/108 114/128/108 99/105/108
f 93/110/109 108/133/109 107/129/109 92/106/109
f 86/111/110 101/134/110 100/130/110 85/107/110
f 94/112/111 109/119/111 108/133/111 93/110/111
f 87/113/112 102/121/112 101/134/112 86/111/112
f 114/128/113 129/135/113 128/136/113 113/126/113
f 107/129/114 122/137/114 121/138/114 106/127/114
f 100/130/115 115/139/115 311/140/115
f 250/141/116 129/135/116 114/128/116
f 108/133/117 123/142/117 122/137/117 107/129/117
f 101/134/118 116/143/118 115/139/118 100/130/118
f 109/119/119 124/144/119 123/142/119 108/133/119
f 102/121/120 117/145/120 116/143/120 101/134/120
f 110/118/121 125/146/121 124/144/121 109/119/121
f 103/120/122 118/147/122 117/145/122 102/121/122
f 111/122/123 126/148/123 125/146/123 110/118/123
f 104/123/124 119/149/124 118/147/124 103/120/124
f 112/124/125 127/150/125 126/148/125 111/122/125
f 105/125/126 120/151/126 119/149/126 104/123/126
f 113/126/127 128/136/127 127/150/127 112/124/127
f 106/127/128 121/138/128 120/151/128 105/125/128
f 118/147/129 133/152/129 132/153/129 117/145/129
f 126/148/130 141/154/130 140/155/130 125/146/130
f 119/149/131 134/156/131 133/152/131 118/147/131
f 127/150/132 142/157/132 141/154/132 126/148/132
f 120/151/133 135/158/133 134/156/133 119/149/133
f 128/136/134 143/159/134 142/157/134 127/150/134
f 121/138/135 136/160/135 135/158/135 120/151/135
f 129/135/136 144/161/136 143/159/136 128/136/136
f 122/137/137 137/162/137 136/160/137 121/138/137
f 115/139/138 130/163/138 311/164/138
f 250/165/139 144/161/139 129/135/139
f 123/142/140 138/166/140 137/162/140 122/137/140
f 116/143/141 131/167/141 130/163/141 115/139/141
f 124/144/142 139/168/142 138/166/142 123/142/142
f 117/145/143 132/153/143 131/167/143 116/143/143
f 125/146/144 140/155/144 139/168/144 124/144/144
f 137/162/145 152/169/145 151/170/145 136/160/145
f 130/163/146 145/171/146 311/172/146
f 250/173/147 159/174/147 144/161/147
f 138/166/148 153/175/148 152/169/148 137/162/148
f 131/167/149 146/176/149 145/171/149 130/163/149
f 139/168/150 154/177/150 153/175/150 138/166/150
f 132/153/151 147/178/151 146/176/151 131/167/151
f 140/155/152 155/179/152 154/177/152 139/168/152
f 133/152/153 148/180/153 147/178/153 132/153/153
f 141/154/154 156/181/154 155/179/154 140/155/154
f 134/156/155 149/182/155 148/180/155 133/152/155
f 142/157/156 157/183/156 156/181/156 141/154/156
f 135/158/157 150/184/157 149/182/157 134/156/157
f 143/159/158 158/185/158 157/183/158 142/157/158
f 136/160/159 151/170/159 150/184/159 135/158/159
f 144/161/160 159/174/160 158/185/160 143/159/160
f 156/181/161 171/186/161 170/187/161 155/179/161
f 149/182/162 164/188/162 163/189/162 148/180/162
f 157/183/163 172/190/163 171/186/163 156/181/163
f 150/184/164 165/191/164 164/188/164 149/182/164
f 158/185/165 173/192/165 172/190/165 157/183/165
f 151/170/166 166/193/166 165/191/166 150/184/166
f 159/174/167 174/194/167 173/192/167 158/185/167
f 152/169/168 167/195/168 166/193/168 151/170/168
f 145/171/169 160/196/169 311/197/169
f 250/198/170 174/194/170 159/174/170
f 153/175/171 168/199/171 167/195/171 152/169/171
f 146/176/172 161/200/172 160/196/172 145/171/172
f 154/177/173 169/201/173 168/199/173 153/175/173
f 147/178/174 162/202/174 161/200/174 146/176/174
f 155/179/175 170/187/175 169/201/175 154/177/175
f 148/180/176 163/189/176 162/202/176 147/178/176
f 160/196/177 175/203/177 311/204/177
f 250/205/178 189/206/178 174/194/178
f 168/199/179 183/207/179 182/208/179 167/195/179
f 161/200/180 176/209/180 175/203/180 160/196/180
f 169/201/181 184/210/181 183/207/181 168/199/181
f 162/202/182 177/211/182 176/209/182 161/200/182
f 170/187/183 185/212/183 184/210/183 169/201/183
f 163/189/184 178/213/184 177/211/184 162/202/184
f 171/186/185 186/214/185 185/212/185 170/187/185
f 164/188/186 179/215/186 178/213/186 163/189/186
f 172/190/187 187/216/187 186/214/187 171/186/187
f 165/191/188 180/217/188 179/215/188 164/188/188
f 173/192/189 188/218/189 187/216/189 172/190/189
f 166/193/190 181/219/190 180/217/190 165/191/190
f 174/194/191 189/206/191 188/218/191 173/192/191
f 167/195/192 182/208/192 181/219/192 166/193/192
f 179/215/193 194/220/193 193/221/193 178/213/193
f 187/216/194 202/222/194 201/223/194 186/214/194
f 180/217/195 195/224/195 194/220/195 179/215/195
f 188/218/196 203/225/196 202/222/196 187/216/196
f 181/219/197 196/226/197 195/224/197 180/217/197
f 189/206/198 204/227/198 203/225/198 188/218/198
f 182/208/199 197/228/199 196/226/199 181/219/199
f 175/203/200 190/229/200 311/230/200
f 250/231/201 204/227/201 189/206/201
f 183/207/202 198/232/202 197/228/202 182/208/202
f 176/209/203 191/233/203 190/229/203 175/203/203
f 184/210/204 199/234/204 198/232/204 183/207/204
f 177/211/205 192/235/205 191/233/205 176/209/205
f 185/212/206 200/236/206 199/234/206 184/210/206
f 178/213/207 193/221/207 192/235/207 177/211/207
f 186/214/208 201/223/208 200/236/208 185/212/208
f 198/232/209 213/237/209 212/238/209 197/228/209
f 191/233/210 206/239/210 205/240/210 190/229/210
f 199/234/211 214/241/211 213/237/211 198/232/211
f 192/235/212 207/242/212 206/239/212 191/233/212
f 200/236/213 215/243/213 214/241/213 199/234/213
f 193/221/214 208/244/214 207/242/214 192/235/214
f 201/223/215 216/245/215 215/243/215 200/236/215
f 194/220/216 209/246/216 208/244/216 193/221/216
f 202/222/217 217/247/217 216/245/217 201/223/217
f 195/224/218 210/248/218 209/246/218 194/220/218
f 203/225/219 218/249/219 217/247/219 202/222/219
f 196/226/220 211/250/220 210/248/220 195/224/220
f 204/227/221 219/251/221 218/249/221 203/225/221
f 197/228/222 212/238/222 211/250/222 196/226/222
f 190/229/223 205/240/223 311/252/223
f 250/253/224 219/251/224 204/227/224
f 217/247/225 232/254/225 231/255/225 216/245/225
f 210/248/226 225/256/226 224/257/226 209/246/226
f 218/249/227 233/258/227 232/254/227 217/247/227
f 211/250/228 226/259/228 225/256/228 210/248/228
f 219/251/229 234/260/229 233/258/229 218/249/229
f 212/238/230 227/261/230 226/259/230 211/250/230
f 205/240/231 220/262/231 311/263/231
f 250/264/232 234/260/232 219/251/232
f 213/237/233 228/265/233 227/261/233 212/238/233
f 206/239/234 221/266/234 220/262/234 205/240/234
f 214/241/235 229/267/235 228/265/235 213/237/235
f 207/242/236 222/268/236 221/266/236 206/239/236
f 215/243/237 230/269/237 229/267/237 214/241/237
f 208/244/238 223/270/238 222/268/238 207/242/238
f 216/245/239 231/255/239 230/269/239 215/243/239
f 209/246/240 224/257/240 223/270/240 208/244/240
f 229/267/241 244/271/241 243/272/241 228/265/241
f 222/268/242 237/273/242 236/274/242 221/266/242
f 230/269/243 245/275/243 244/271/243 229/267/243
f 223/270/244 238/276/244 237/273/244 222/268/244
f 231/255/245 246/277/245 245/275/245 230/269/245
f 224/257/246 239/278/246 238/276/246 223/270/246
f 232/254/247 247/279/247 246/277/247 231/255/247
f 225/256/248 240/280/248 239/278/248 224/257/248
f 233/258/249 248/281/249 247/279/249 232/254/249
f 226/259/250 241/282/250 240/280/250 225/256/250
f 234/260/251 249/283/251 248/281/251 233/258/251
f 227/261/252 242/284/252 241/282/252 226/259/252
f 220/262/253 235/285/253 311/286/253
f 250/287/254 249/283/254 234/260/254
f 228/265/255 243/272/255 242/284/255 227/261/255
f 221/266/256 236/274/256 235/285/256 220/262/256
f 248/281/257 264/288/257 263/289/257 247/279/257
f 241/282/258 257/290/258 256/291/258 240/280/258
f 249/283/259 265/292/259 264/288/259 248/281/259
f 242/284/260 258/293/260 257/290/260 241/282/260
f 235/285/261 251/294/261 311/295/261
f 250/296/262 265/292/262 249/283/262
f 243/272/263 259/297/263 258/293/263 242/284/263
f 236/274/264 252/298/264 251/294/264 235/285/264
f 244/271/265 260/299/265 259/297/265 243/272/265
f 237/273/266 253/300/266 252/298/266 236/274/266
f 245/275/267 261/301/267 260/299/267 244/271/267
f 238/276/268 254/302/268 253/300/268 237/273/268
f 246/277/269 262/303/269 261/301/269 245/275/269
f 239/278/270 255/304/270 254/302/270 238/276/270
f 247/279/271 263/289/271 262/303/271 246/277/271
f 240/280/272 256/291/272 255/304/272 239/278/272
f 253/300/273 268/305/273 267/306/273 252/298/273
f 261/301/274 276/307/274 275/308/274 260/299/274
f 254/302/275 269/309/275 268/305/275 253/300/275
f 262/303/276 277/310/276 276/307/276 261/301/276
f 255/304/277 270/311/277 269/309/277 254/302/277
f 263/289/278 278/312/278 277/310/278 262/303/278
f 256/291/279 271/313/279 270/311/279 255/304/279
f 264/288/280 279/314/280 278/312/280 263/289/280
f 257/290/281 272/315/281 271/313/281 256/291/281
f 265/292/282 280/316/282 279/314/282 264/288/282
f 258/293/283 273/317/283 272/315/283 257/290/283
f 251/294/284 266/318/284 311/319/284
f 250/320/285 280/316/285 265/292/285
f 259/297/286 274/321/286 273/317/286 258/293/286
f 252/298/287 267/306/287 266/318/287 251/294/287
f 260/299/288 275/308/288 274/321/288 259/297/288
f 272/315/289 287/322/289 286/323/289 271/313/289
f 280/316/290 295/324/290 294/325/290 279/314/290
f 273/317/291 288/326/291 287/322/291 272/315/291
f 266/318/292 281/327/292 311/328/292
f 250/329/293 295/324/293 280/316/293
f 274/321/294 289/330/294 288/326/294 273/317/294
f 267/306/295 282/331/295 281/327/295 266/318/295
f 275/308/296 290/332/296 289/330/296 274/321/296
f 268/305/297 283/333/297 282/331/297 267/306/297
f 276/307/298 291/334/298 290/332/298 275/308/298
f 269/309/299 284/335/299 283/333/299 268/305/299
f 277/310/300 292/336/300 291/334/300 276/307/300
f 270/311/301 285/337/301 284/335/301 269/309/301
f 278/312/302 293/338/302 292/336/302 277/310/302
f 271/313/303 286/323/303 285/337/303 270/311/303
f 279/314/304 294/325/304 293/338/304 278/312/304
f 291/334/305 306/339/305 305/340/305 290/332/305
f 284/335/306 299/341/306 298/342/306 283/333/306
f 292/336/307 307/343/307 306/339/307 291/334/307
f 285/337/308 300/344/308 299/341/308 284/335/308
f 293/338/309 308/345/309 307/343/309 292/336/309
f 286/323/310 301/346/310 300/344/310 285/337/310
f 294/325/311 309/347/311 308/345/311 293/338/311
f 287/322/312 302/348/312 301/346/312 286/323/312
f 295/324/313 310/349/313 309/347/313 294/325/313
f 288/326/314 303/350/314 302/348/314 287/322/314
f 281/327/315 296/351/315 311/352/315
f 250/353/316 310/349/316 295/324/316
f 289/330/317 304/354/317 303/350/317 288/326/317
f 282/331/318 297/355/318 296/351/318 281/327/318
f 290/332/319 305/340/319 304/354/319 289/330/319
f 283/333/320 298/342/320 297/355/320 282/331/320
f 310/349/321 326/356/321 325/357/321 309/347/321
f 303/350/322 319/358/322 318/359/322 302/348/322
f 296/351/323 312/360/323 311/361/323
f 250/362/324 326/356/324 310/349/324
f 304/354/325 320/363/325 319/358/325 303/350/325
f 297/355/326 313/364/326 312/360/326 296/351/326
f 305/340/327 321/365/327 320/363/327 304/354/327
f 298/342/328 314/366/328 313/364/328 297/355/328
f 306/339/329 322/367/329 321/365/329 305/340/329
f 299/341/330 315/368/330 314/366/330 298/342/330
f 307/343/331 323/369/331 322/367/331 306/339/331
f 300/344/332 316/370/332 315/368/332 299/341/332
f 308/345/333 324/371/333 323/369/333 307/343/333
f 301/346/334 317/372/334 316/370/334 300/344/334
f 309/347/335 325/357/335 324/371/335 308/345/335
f 302/348/336 318/359/336 317/372/336 301/346/336
f 315/368/337 330/373/337 329/374/337 314/366/337
f 323/369/338 338/375/338 337/376/338 322/367/338
f 316/370/339 331/377/339 330/373/339 315/368/339
f 324/371/340 339/378/340 338/375/340 323/369/340
f 317/372/341 332/379/341 331/377/341 316/370/341
f 325/357/342 340/380/342 339/378/342 324/371/342
f 318/359/343 333/381/343 332/379/343 317/372/343
f 326/356/344 341/382/344 340/380/344 325/357/344
f 319/358/345 334/383/345 333/381/345 318/359/345
f 312/360/346 327/384/346 311/385/346
f 250/386/347 341/382/347 326/356/347
f 320/363/348 335/387/348 334/383/348 319/358/348
f 313/364/349 328/388/349 327/384/349 312/360/349
f 321/365/350 336/389/350 335/387/350 320/363/350
f 314/366/351 329/374/351 328/388/351 313/364/351
f 322/367/352 337/376/352 336/389/352 321/365/352
f 334/383/353 349/390/353 348/391/353 333/381/353
f 327/384/354 342/392/354 311/393/354
f 250/394/355 356/395/355 341/382/355
f 335/387/356 350/396/356 349/390/356 334/383/356
f 328/388/357 343/397/357 342/392/357 327/384/357
f 336/389/358 351/398/358 350/396/358 335/387/358
f 329/374/359 344/399/359 343/397/359 328/388/359
f 337/376/360 352/400/360 351/398/360 336/389/360
f 330/373/361 345/401/361 344/399/361 329/374/361
f 338/375/362 353/402/362 352/400/362 337/376/362
f 331/377/363 346/403/363 345/401/363 330/373/363
f 339/378/364 354/404/364 353/402/364 338/375/364
f 332/379/365 347/405/365 346/403/365 331/377/365
f 340/380/366 355/406/366 354/404/366 339/378/366
f 333/381/367 348/391/367 347/405/367 332/379/367
f 341/382/368 356/395/368 355/406/368 340/380/368
f 353/402/369 368/407/369 367/408/369 352/400/369
f 346/403/370 361/409/370 360/410/370 345/401/370
f 354/404/371 369/411/371 368/407/371 353/402/371
f 347/405/372 362/412/372 361/409/372 346/403/372
f 355/406/373 370/413/373 369/411/373 354/404/373
f 348/391/374 363/414/374 362/412/374 347/405/374
f 356/395/375 371/415/375 370/413/375 355/406/375
f 349/390/376 364/416/376 363/414/376 348/391/376
f 342/392/377 357/417/377 311/418/377
f 250/419/378 371/415/378 356/395/378
f 350/396/379 365/420/379 364/416/379 349/390/379
f 343/397/380 358/421/380 357/417/380 342/392/380
f 351/398/381 366/422/381 365/420/381 350/396/381
f 344/399/382 359/423/382 358/421/382 343/397/382
f 352/400/383 367/408/383 366/422/383 351/398/383
f 345/401/384 360/410/384 359/423/384 344/399/384
f 250/424/385 386/425/385 371/426/385
f 365/427/386 380/428/386 379/429/386 364/430/386
f 358/431/387 373/432/387 372/433/387 357/434/387
f 366/435/388 381/436/388 380/428/388 365/427/388
f 359/437/389 374/438/389 373/432/389 358/431/389
f 367/439/390 382/440/390 381/436/390 366/435/390
f 360/441/391 375/442/391 374/438/391 359/437/391
f 368/443/392 383/444/392 382/440/392 367/439/392
f 361/445/393 376/446/393 375/442/393 360/441/393
f 369/447/394 384/448/394 383/444/394 368/443/394
f 362/449/395 377/450/395 376/446/395 361/445/395
f 370/451/396 385/452/396 384/448/396 369/447/396
f 363/453/397 378/454/397 377/450/397 362/449/397
f 371/426/398 386/425/398 385/452/398 370/451/398
f 364/430/399 379/429/399 378/454/399 363/453/399
f 357/434/400 372/433/400 311/455/400
f 384/448/401 399/456/401 398/457/401 383/444/401
f 377/450/402 392/458/402 391/459/402 376/446/402
f 385/452/403 400/460/403 399/456/403 384/448/403
f 378/454/404 393/461/404 392/458/404 377/450/404
f 386/425/405 401/462/405 400/460/405 385/452/405
f 379/429/406 394/463/406 393/461/406 378/454/406
f 372/433/407 387/464/407 311/465/407
f 250/466/408 401/462/408 386/425/408
f 380/428/409 395/467/409 394/463/409 379/429/409
f 373/432/410 388/468/410 387/464/410 372/433/410
f 381/436/411 396/469/411 395/467/411 380/428/411
f 374/438/412 389/470/412 388/468/412 373/432/412
f 382/440/413 397/471/413 396/469/413 381/436/413
f 375/442/414 390/472/414 389/470/414 374/438/414
f 383/444/415 398/457/415 397/471/415 382/440/415
f 376/446/416 391/459/416 390/472/416 375/442/416
f 388/468/417 403/473/417 402/474/417 387/464/417
f 396/469/418 411/475/418 410/476/418 395/467/418
f 389/470/419 404/477/419 403/473/419 388/468/419
f 397/471/420 412/478/420 411/475/420 396/469/420
f 390/472/421 405/479/421 404/477/421 389/470/421
f 398/457/422 413/480/422 412/478/422 397/471/422
f 391/459/423 406/481/423 405/479/423 390/472/423
f 399/456/424 414/482/424 413/480/424 398/457/424
f 392/458/425 407/483/425 406/481/425 391/459/425
f 400/460/426 415/484/426 414/482/426 399/456/426
f 393/461/427 408/485/427 407/483/427 392/458/427
f 401/462/428 416/486/428 415/484/428 400/460/428
f 394/463/429 409/487/429 408/485/429 393/461/429
f 387/464/430 402/474/430 311/488/430
f 250/489/431 416/486/431 401/462/431
f 395/467/432 410/476/432 409/487/432 394/463/432
f 407/483/433 422/490/433 421/491/433 406/481/433
f 415/484/434 430/492/434 429/493/434 414/482/434
f 408/485/435 423/494/435 422/490/435 407/483/435
f 416/486/436 431/495/436 430/492/436 415/484/436
f 409/487/437 424/496/437 423/494/437 408/485/437
f 402/474/438 417/497/438 311/498/438
f 250/499/439 431/495/439 416/486/439
f 410/476/440 425/500/440 424/496/440 409/487/440
f 403/473/441 418/501/441 417/497/441 402/474/441
f 411/475/442 426/502/442 425/500/442 410/476/442
f 404/477/443 419/503/443 418/501/443 403/473/443
f 412/478/444 427/504/444 426/502/444 411/475/444
f 405/479/445 420/505/445 419/503/445 404/477/445
f 413/480/446 428/506/446 427/504/446 412/478/446
f 406/481/447 421/491/447 420/505/447 405/479/447
f 414/482/448 429/493/448 428/506/448 413/480/448
f 426/502/449 441/507/449 440/508/449 425/500/449
f 419/503/450 434/509/450 433/510/450 418/501/450
f 427/504/451 442/511/451 441/507/451 426/502/451
f 420/505/452 435/512/452 434/509/452 419/503/452
f 428/506/453 443/513/453 442/511/453 427/504/453
f 421/491/454 436/514/454 435/512/454 420/505/454
f 429/493/455 444/515/455 443/513/455 428/506/455
f 422/490/456 437/516/456 436/514/456 421/491/456
f 430/492/457 445/517/457 444/515/457 429/493/457
f 423/494/458 438/518/458 437/516/458 422/490/458
f 431/495/459 446/519/459 445/517/459 430/492/459
f 424/496/460 439/520/460 438/518/460 423/494/460
f 417/497/461 432/521/461 311/522/461
f 250/523/462 446/519/462 431/495/462
f 425/500/463 440/508/463 439/520/463 424/496/463
f 418/501/464 433/510/464 432/521/464 417/497/464
f 445/517/465 460/524/465 459/525/465 444/515/465
f 438/518/466 453/526/466 452/527/466 437/516/466
f 446/519/467 461/528/467 460/524/467 445/517/467
f 439/520/468 454/529/468 453/526/468 438/518/468
f 432/521/469 447/530/469 311/531/469
f 250/532/470 461/528/470 446/519/470
f 440/508/471 455/533/471 454/529/471 439/520/471
f 433/510/472 448/534/472 447/530/472 432/521/472
f 441/507/473 456/535/473 455/533/473 440/508/473
f 434/509/474 449/536/474 448/534/474 433/510/474
f 442/511/475 457/537/475 456/535/475 441/507/475
f 435/512/476 450/538/476 449/536/476 434/509/476
f 443/513/477 458/539/477 457/537/477 442/511/477
f 436/514/478 451/540/478 450/538/478 435/512/478
f 444/515/479 459/525/479 458/539/479 443/513/479
f 437/516/480 452/527/480 451/540/480 436/514/480
f 449/536/481 464/541/481 463/542/481 448/534/481
f 457/537/482 472/543/482 471/544/482 456/535/482
f 450/538/483 465/545/483 464/541/483 449/536/483
f 458/539/484 473/546/484 472/543/484 457/537/484
f 451/540/485 466/547/485 465/545/485 450/538/485
f 459/525/486 474/548/486 473/546/486 458/539/486
f 452/527/487 467/549/487 466/547/487 451/540/487
f 460/524/488 475/550/488 474/548/488 459/525/488
f 453/526/489 468/551/489 467/549/489 452/527/489
f 461/528/490 476/552/490 475/550/490 460/524/490
f 454/529/491 469/553/491 468/551/491 453/526/491
f 447/530/492 462/554/492 311/555/492
f 250/556/493 476/552/493 461/528/493
f 455/533/494 470/557/494 469/553/494 454/529/494
f 448/534/495 463/542/495 462/554/495 447/530/495
f 456/535/496 471/544/496 470/557/496 455/533/496
f 468/551/497 5/5/497 4/8/497 467/549/497
f 476/552/498 482/9/498 481/1/498 475/550/498
f 469/553/499 6/11/499 5/5/499 468/551/499
f 462/554/500 1/13/500 311/558/500
f 250/559/501 482/9/501 476/552/501
f 470/557/502 7/17/502 6/11/502 469/553/502
f 463/542/503 477/19/503 1/13/503 462/554/503
f 471/544/504 8/21/504 7/17/504 470/557/504
f 464/541/505 2/23/505 477/19/505 463/542/505
f 472/543/506 9/25/506 8/21/506 471/544/506
f 465/545/507 3/27/507 2/23/507 464/541/507
f 473/546/508 479/29/508 9/25/508 472/543/508
f 466/547/509 478/31/509 3/27/509 465/545/509
f 474/548/510 480/4/510 479/29/510 473/546/510
f 467/549/511 4/8/511 478/31/511 466/547/511
f 475/550/512 481/1/512 480/4/512 474/548/512
