# Blender 4.4.1
# www.blender.org
mtllib umbrella.mtl
o 円柱
v -0.000000 0.201735 -0.079223
v -0.000000 0.250000 0.079224
v 0.048773 0.245196 0.079224
v 0.039356 0.197858 -0.079223
v 0.095671 0.230970 0.079224
v 0.077200 0.186378 -0.079223
v 0.138893 0.207867 0.079224
v 0.112078 0.167736 -0.079223
v 0.176777 0.176777 0.079224
v 0.142648 0.142648 -0.079223
v 0.207867 0.138893 0.079224
v 0.167736 0.112078 -0.079223
v 0.230970 0.095671 0.079224
v 0.186378 0.077201 -0.079223
v 0.245196 0.048773 0.079224
v 0.197858 0.039356 -0.079224
v 0.250000 0.000000 0.079224
v 0.201735 0.000000 -0.079224
v 0.245196 -0.048773 0.079224
v 0.197858 -0.039356 -0.079224
v 0.230970 -0.095671 0.079224
v 0.186378 -0.077200 -0.079224
v 0.207867 -0.138893 0.079224
v 0.167736 -0.112078 -0.079224
v 0.176777 -0.176777 0.079224
v 0.142648 -0.142648 -0.079224
v 0.138893 -0.207867 0.079224
v 0.112078 -0.167736 -0.079224
v 0.095671 -0.230970 0.079224
v 0.077200 -0.186378 -0.079224
v 0.048773 -0.245196 0.079224
v 0.039356 -0.197858 -0.079224
v -0.000000 -0.250000 0.079224
v -0.000000 -0.201735 -0.079224
v -0.048773 -0.245196 0.079224
v -0.039356 -0.197858 -0.079224
v -0.095671 -0.230970 0.079224
v -0.077200 -0.186378 -0.079224
v -0.138893 -0.207867 0.079224
v -0.112078 -0.167736 -0.079224
v -0.176777 -0.176777 0.079224
v -0.142648 -0.142648 -0.079224
v -0.207867 -0.138893 0.079224
v -0.167736 -0.112078 -0.079224
v -0.230970 -0.095671 0.079224
v -0.186378 -0.077200 -0.079224
v -0.245196 -0.048773 0.079224
v -0.197858 -0.039356 -0.079224
v -0.250000 0.000000 0.079224
v -0.201735 0.000000 -0.079224
v -0.245196 0.048773 0.079224
v -0.197858 0.039356 -0.079224
v -0.230970 0.095671 0.079224
v -0.186378 0.077201 -0.079223
v -0.207867 0.138893 0.079224
v -0.167736 0.112078 -0.079223
v -0.176777 0.176777 0.079224
v -0.142648 0.142648 -0.079223
v -0.138893 0.207867 0.079224
v -0.112078 0.167736 -0.079223
v -0.095671 0.230970 0.079224
v -0.077200 0.186378 -0.079223
v -0.048773 0.245196 0.079224
v -0.039356 0.197858 -0.079223
vn -0.0938 0.9524 -0.2901
vn -0.2778 0.9158 -0.2901
vn -0.4511 0.8440 -0.2901
vn -0.6071 0.7398 -0.2901
vn -0.7398 0.6071 -0.2901
vn -0.8440 0.4511 -0.2901
vn -0.9158 0.2778 -0.2901
vn -0.9524 0.0938 -0.2901
vn -0.9524 -0.0938 -0.2901
vn -0.9158 -0.2778 -0.2901
vn -0.8440 -0.4511 -0.2901
vn -0.7398 -0.6071 -0.2901
vn -0.6071 -0.7398 -0.2901
vn -0.4511 -0.8440 -0.2901
vn -0.2778 -0.9158 -0.2901
vn -0.0938 -0.9524 -0.2901
vn 0.0938 -0.9524 -0.2901
vn 0.2778 -0.9158 -0.2901
vn 0.4511 -0.8440 -0.2901
vn 0.6071 -0.7398 -0.2901
vn 0.7398 -0.6071 -0.2901
vn 0.8440 -0.4511 -0.2901
vn 0.9158 -0.2778 -0.2901
vn 0.9524 -0.0938 -0.2901
vn 0.9524 0.0938 -0.2901
vn 0.9158 0.2778 -0.2901
vn 0.8440 0.4511 -0.2901
vn 0.7398 0.6071 -0.2901
vn 0.6071 0.7398 -0.2901
vn 0.4511 0.8440 -0.2901
vn 0.2778 0.9158 -0.2901
vn 0.0938 0.9524 -0.2901
vt 0.031250 0.666667
vt 0.000000 0.833333
vt 0.000000 0.666667
vt 0.062500 0.666667
vt 0.031250 0.833333
vt 0.093750 0.833333
vt 0.093750 0.666667
vt 0.125000 0.666667
vt 0.156250 0.833333
vt 0.156250 0.666667
vt 0.187500 0.833333
vt 0.187500 0.666667
vt 0.218750 0.833333
vt 0.218750 0.666667
vt 0.250000 0.666667
vt 0.281250 0.833333
vt 0.281250 0.666667
vt 0.312500 0.666667
vt 0.343750 0.666667
vt 0.312500 0.833333
vt 0.375000 0.833333
vt 0.375000 0.666667
vt 0.406250 0.833333
vt 0.406250 0.666667
vt 0.437500 0.833333
vt 0.437500 0.666667
vt 0.468750 0.833333
vt 0.468750 0.666667
vt 0.500000 0.666667
vt 0.531250 0.833333
vt 0.531250 0.666667
vt 0.562500 0.833333
vt 0.562500 0.666667
vt 0.593750 0.833333
vt 0.593750 0.666667
vt 0.625000 0.833333
vt 0.625000 0.666667
vt 0.656250 0.833333
vt 0.656250 0.666667
vt 0.687500 0.833333
vt 0.687500 0.666667
vt 0.718750 0.833333
vt 0.718750 0.666667
vt 0.750000 0.666667
vt 0.781250 0.833333
vt 0.781250 0.666667
vt 0.812500 0.666667
vt 0.843750 0.833333
vt 0.843750 0.666667
vt 0.875000 0.666667
vt 0.906250 0.833333
vt 0.906250 0.666667
vt 0.937500 0.666667
vt 0.968750 0.833333
vt 0.968750 0.666667
vt 1.000000 0.833333
vt 1.000000 0.666667
vt 0.062500 0.833333
vt 0.125000 0.833333
vt 0.250000 0.833333
vt 0.343750 0.833333
vt 0.500000 0.833333
vt 0.750000 0.833333
vt 0.812500 0.833333
vt 0.875000 0.833333
vt 0.937500 0.833333
s 0
f 64/1/1 2/2/1 1/3/1
f 62/4/2 63/5/2 64/1/2
f 59/6/3 62/4/3 60/7/3
f 58/8/4 59/6/4 60/7/4
f 55/9/5 58/8/5 56/10/5
f 53/11/6 56/10/6 54/12/6
f 51/13/7 54/12/7 52/14/7
f 50/15/8 51/13/8 52/14/8
f 47/16/9 50/15/9 48/17/9
f 46/18/10 47/16/10 48/17/10
f 44/19/11 45/20/11 46/18/11
f 41/21/12 44/19/12 42/22/12
f 39/23/13 42/22/13 40/24/13
f 37/25/14 40/24/14 38/26/14
f 35/27/15 38/26/15 36/28/15
f 34/29/16 35/27/16 36/28/16
f 31/30/17 34/29/17 32/31/17
f 29/32/18 32/31/18 30/33/18
f 27/34/19 30/33/19 28/35/19
f 25/36/20 28/35/20 26/37/20
f 23/38/21 26/37/21 24/39/21
f 21/40/22 24/39/22 22/41/22
f 19/42/23 22/41/23 20/43/23
f 18/44/24 19/42/24 20/43/24
f 15/45/25 18/44/25 16/46/25
f 14/47/26 15/45/26 16/46/26
f 11/48/27 14/47/27 12/49/27
f 10/50/28 11/48/28 12/49/28
f 7/51/29 10/50/29 8/52/29
f 6/53/30 7/51/30 8/52/30
f 3/54/31 6/53/31 4/55/31
f 2/56/32 4/55/32 1/57/32
f 64/1/1 63/5/1 2/2/1
f 62/4/2 61/58/2 63/5/2
f 59/6/3 61/58/3 62/4/3
f 58/8/4 57/59/4 59/6/4
f 55/9/5 57/59/5 58/8/5
f 53/11/6 55/9/6 56/10/6
f 51/13/7 53/11/7 54/12/7
f 50/15/8 49/60/8 51/13/8
f 47/16/9 49/60/9 50/15/9
f 46/18/10 45/20/10 47/16/10
f 44/19/11 43/61/11 45/20/11
f 41/21/12 43/61/12 44/19/12
f 39/23/13 41/21/13 42/22/13
f 37/25/14 39/23/14 40/24/14
f 35/27/15 37/25/15 38/26/15
f 34/29/16 33/62/16 35/27/16
f 31/30/17 33/62/17 34/29/17
f 29/32/18 31/30/18 32/31/18
f 27/34/19 29/32/19 30/33/19
f 25/36/20 27/34/20 28/35/20
f 23/38/21 25/36/21 26/37/21
f 21/40/22 23/38/22 24/39/22
f 19/42/23 21/40/23 22/41/23
f 18/44/24 17/63/24 19/42/24
f 15/45/25 17/63/25 18/44/25
f 14/47/26 13/64/26 15/45/26
f 11/48/27 13/64/27 14/47/27
f 10/50/28 9/65/28 11/48/28
f 7/51/29 9/65/29 10/50/29
f 6/53/30 5/66/30 7/51/30
f 3/54/31 5/66/31 6/53/31
f 2/56/32 3/54/32 4/55/32
