# Blender 4.3.2
# www.blender.org
mtllib Yoyo.mtl
o 円柱
v -0.195090 0.119301 -0.980785
v 0.000000 0.543231 -0.718986
v -0.382683 0.119301 -0.923880
v 0.140267 0.543231 -0.705171
v -0.555570 0.119301 -0.831470
v 0.275144 0.543231 -0.664256
v -0.707107 0.119301 -0.707107
v 0.399447 0.543231 -0.597815
v -0.831470 0.119301 -0.555570
v 0.508400 0.543231 -0.508400
v -0.923880 0.119301 -0.382683
v 0.597815 0.543231 -0.399447
v -0.980785 0.119301 -0.195090
v 0.664256 0.543231 -0.275144
v -1.000000 0.119301 0.000000
v 0.705171 0.543231 -0.140267
v -0.980785 0.119301 0.195090
v 0.718986 0.543231 0.000000
v -0.923880 0.119301 0.382683
v 0.705171 0.543231 0.140267
v -0.831470 0.119301 0.555570
v 0.664256 0.543231 0.275144
v -0.707107 0.119301 0.707107
v 0.597815 0.543231 0.399447
v -0.555570 0.119301 0.831470
v 0.508400 0.543231 0.508400
v -0.382683 0.119301 0.923880
v 0.399447 0.543231 0.597815
v -0.195090 0.119301 0.980785
v 0.275144 0.543231 0.664256
v 0.000000 0.119301 1.000000
v 0.140267 0.543231 0.705171
v 0.195090 0.119301 0.980785
v 0.000000 0.543231 0.718986
v 0.382683 0.119301 0.923880
v -0.140267 0.543231 0.705171
v 0.555570 0.119301 0.831470
v -0.275144 0.543231 0.664256
v 0.707107 0.119301 0.707107
v -0.399447 0.543231 0.597815
v 0.831470 0.119301 0.555570
v -0.508400 0.543231 0.508400
v 0.923880 0.119301 0.382683
v -0.597815 0.543231 0.399447
v 0.980785 0.119301 0.195090
v -0.664256 0.543231 0.275144
v 1.000000 0.119301 0.000000
v -0.705171 0.543231 0.140267
v 0.980785 0.119301 -0.195090
v -0.718986 0.543231 0.000000
v 0.923880 0.119301 -0.382683
v -0.705171 0.543231 -0.140267
v 0.831470 0.119301 -0.555570
v -0.664256 0.543231 -0.275144
v 0.707107 0.119301 -0.707107
v -0.597815 0.543231 -0.399447
v 0.555570 0.119301 -0.831470
v -0.508400 0.543231 -0.508400
v 0.382683 0.119301 -0.923880
v -0.399447 0.543231 -0.597815
v 0.195090 0.119301 -0.980785
v -0.275144 0.543231 -0.664256
v 0.000000 0.119301 -1.000000
v -0.140267 0.543231 -0.705171
v 0.000000 0.000000 -0.557488
v 0.108760 0.000000 -0.546776
v 0.213341 0.000000 -0.515052
v 0.309724 0.000000 -0.463534
v 0.394203 0.000000 -0.394203
v 0.463534 0.000000 -0.309724
v 0.515051 0.000000 -0.213341
v 0.546776 0.000000 -0.108760
v 0.557488 0.000000 -0.000000
v 0.546776 0.000000 0.108760
v 0.515051 0.000000 0.213341
v 0.463534 0.000000 0.309724
v 0.394203 0.000000 0.394203
v 0.309724 0.000000 0.463534
v 0.213341 0.000000 0.515051
v 0.108760 0.000000 0.546776
v 0.000000 0.000000 0.557488
v -0.108760 0.000000 0.546776
v -0.213341 0.000000 0.515051
v -0.309724 0.000000 0.463534
v -0.394203 0.000000 0.394203
v -0.463534 0.000000 0.309724
v -0.515051 0.000000 0.213341
v -0.546776 0.000000 0.108760
v -0.557488 0.000000 -0.000000
v -0.546776 0.000000 -0.108760
v -0.515051 0.000000 -0.213341
v -0.463534 0.000000 -0.309724
v -0.394203 0.000000 -0.394203
v -0.309724 0.000000 -0.463534
v -0.213341 0.000000 -0.515052
v -0.108760 0.000000 -0.546776
v 0.000000 0.097098 -0.567236
v 0.110662 0.097098 -0.556337
v 0.217072 0.097098 -0.524058
v 0.315140 0.097098 -0.471640
v 0.401097 0.097098 -0.401097
v 0.471640 0.097098 -0.315140
v 0.524058 0.097098 -0.217072
v 0.556337 0.097098 -0.110662
v 0.567237 0.097098 -0.000000
v 0.556337 0.097098 0.110662
v 0.524058 0.097098 0.217072
v 0.471640 0.097098 0.315140
v 0.401097 0.097098 0.401097
v 0.315140 0.097098 0.471640
v 0.217072 0.097098 0.524058
v 0.110662 0.097098 0.556337
v 0.000000 0.097098 0.567236
v -0.110662 0.097098 0.556337
v -0.217072 0.097098 0.524058
v -0.315140 0.097098 0.471640
v -0.401097 0.097098 0.401097
v -0.471640 0.097098 0.315140
v -0.524058 0.097098 0.217072
v -0.556337 0.097098 0.110662
v -0.567236 0.097098 -0.000000
v -0.556337 0.097098 -0.110662
v -0.524058 0.097098 -0.217072
v -0.471640 0.097098 -0.315140
v -0.401097 0.097098 -0.401097
v -0.315140 0.097098 -0.471640
v -0.217072 0.097098 -0.524058
v -0.110662 0.097098 -0.556337
v 0.195090 0.543231 -0.980785
v 0.000000 0.543231 -1.000000
v 0.382683 0.543231 -0.923880
v 0.555570 0.543231 -0.831470
v 0.707107 0.543231 -0.707107
v 0.831470 0.543231 -0.555570
v 0.923880 0.543231 -0.382683
v 0.980785 0.543231 -0.195090
v 1.000000 0.543231 0.000000
v 0.980785 0.543231 0.195090
v 0.923880 0.543231 0.382683
v 0.831470 0.543231 0.555570
v 0.707107 0.543231 0.707107
v 0.555570 0.543231 0.831470
v 0.382683 0.543231 0.923880
v 0.195090 0.543231 0.980785
v 0.000000 0.543231 1.000000
v -0.195090 0.543231 0.980785
v -0.382683 0.543231 0.923880
v -0.555570 0.543231 0.831470
v -0.707107 0.543231 0.707107
v -0.831470 0.543231 0.555570
v -0.923880 0.543231 0.382683
v -0.980785 0.543231 0.195090
v -1.000000 0.543231 0.000000
v -0.980785 0.543231 -0.195090
v -0.923880 0.543231 -0.382683
v -0.831470 0.543231 -0.555570
v -0.707107 0.543231 -0.707107
v -0.555570 0.543231 -0.831470
v -0.382683 0.543231 -0.923880
v -0.195090 0.543231 -0.980785
v 0.140267 0.410825 -0.705171
v 0.000000 0.410825 -0.718986
v 0.275144 0.410825 -0.664256
v 0.399447 0.410825 -0.597815
v 0.508400 0.410825 -0.508400
v 0.597815 0.410825 -0.399447
v 0.664256 0.410825 -0.275144
v 0.705171 0.410825 -0.140267
v 0.718986 0.410825 0.000000
v 0.705171 0.410825 0.140267
v 0.664256 0.410825 0.275144
v 0.597815 0.410825 0.399447
v 0.508400 0.410825 0.508400
v 0.399447 0.410825 0.597815
v 0.275144 0.410825 0.664256
v 0.140267 0.410825 0.705171
v 0.000000 0.410825 0.718986
v -0.140267 0.410825 0.705171
v -0.275144 0.410825 0.664256
v -0.399447 0.410825 0.597815
v -0.508400 0.410825 0.508400
v -0.597815 0.410825 0.399447
v -0.664256 0.410825 0.275144
v -0.705171 0.410825 0.140267
v -0.718986 0.410825 0.000000
v -0.705171 0.410825 -0.140267
v -0.664256 0.410825 -0.275144
v -0.597815 0.410825 -0.399447
v -0.508400 0.410825 -0.508400
v -0.399447 0.410825 -0.597815
v -0.275144 0.410825 -0.664256
v -0.140267 0.410825 -0.705171
v 0.195090 0.119301 -0.980785
v 0.382683 0.119301 -0.923880
v -0.140267 0.543231 -0.705171
v 0.555570 0.119301 -0.831470
v -0.275144 0.543231 -0.664256
v 0.707107 0.119301 -0.707107
v -0.399447 0.543231 -0.597815
v 0.831470 0.119301 -0.555570
v -0.508400 0.543231 -0.508400
v 0.923880 0.119301 -0.382683
v -0.597815 0.543231 -0.399447
v 0.980785 0.119301 -0.195090
v -0.664256 0.543231 -0.275144
v 1.000000 0.119301 0.000000
v -0.705171 0.543231 -0.140267
v 0.980785 0.119301 0.195090
v -0.718986 0.543231 0.000000
v 0.923880 0.119301 0.382683
v -0.705171 0.543231 0.140267
v 0.831470 0.119301 0.555570
v -0.664256 0.543231 0.275144
v 0.707107 0.119301 0.707107
v -0.597815 0.543231 0.399447
v 0.555570 0.119301 0.831470
v -0.508400 0.543231 0.508400
v 0.382683 0.119301 0.923880
v -0.399447 0.543231 0.597815
v 0.195090 0.119301 0.980785
v -0.275144 0.543231 0.664256
v -0.140267 0.543231 0.705171
v -0.195090 0.119301 0.980785
v -0.382683 0.119301 0.923880
v 0.140267 0.543231 0.705171
v -0.555570 0.119301 0.831470
v 0.275144 0.543231 0.664256
v -0.707107 0.119301 0.707107
v 0.399447 0.543231 0.597815
v -0.831470 0.119301 0.555570
v 0.508400 0.543231 0.508400
v -0.923880 0.119301 0.382683
v 0.597815 0.543231 0.399447
v -0.980785 0.119301 0.195090
v 0.664256 0.543231 0.275144
v -1.000000 0.119301 0.000000
v 0.705171 0.543231 0.140267
v -0.980785 0.119301 -0.195090
v 0.718986 0.543231 0.000000
v -0.923880 0.119301 -0.382683
v 0.705171 0.543231 -0.140267
v -0.831470 0.119301 -0.555570
v 0.664256 0.543231 -0.275144
v -0.707107 0.119301 -0.707107
v 0.597815 0.543231 -0.399447
v -0.555570 0.119301 -0.831470
v 0.508400 0.543231 -0.508400
v -0.382683 0.119301 -0.923880
v 0.399447 0.543231 -0.597815
v -0.195090 0.119301 -0.980785
v 0.275144 0.543231 -0.664256
v 0.140267 0.543231 -0.705171
v -0.108760 0.000000 -0.546776
v -0.213341 0.000000 -0.515052
v -0.309724 0.000000 -0.463534
v -0.394203 0.000000 -0.394203
v -0.463534 0.000000 -0.309724
v -0.515051 0.000000 -0.213341
v -0.546776 0.000000 -0.108760
v -0.557488 0.000000 -0.000000
v -0.546776 0.000000 0.108760
v -0.515051 0.000000 0.213341
v -0.463534 0.000000 0.309724
v -0.394203 0.000000 0.394203
v -0.309724 0.000000 0.463534
v -0.213341 0.000000 0.515051
v -0.108760 0.000000 0.546776
v 0.108760 0.000000 0.546776
v 0.213341 0.000000 0.515051
v 0.309724 0.000000 0.463534
v 0.394203 0.000000 0.394203
v 0.463534 0.000000 0.309724
v 0.515051 0.000000 0.213341
v 0.546776 0.000000 0.108760
v 0.557488 0.000000 -0.000000
v 0.546776 0.000000 -0.108760
v 0.515051 0.000000 -0.213341
v 0.463534 0.000000 -0.309724
v 0.394203 0.000000 -0.394203
v 0.309724 0.000000 -0.463534
v 0.213341 0.000000 -0.515052
v 0.108760 0.000000 -0.546776
v -0.110662 0.097098 -0.556337
v -0.217072 0.097098 -0.524058
v -0.315140 0.097098 -0.471640
v -0.401097 0.097098 -0.401097
v -0.471640 0.097098 -0.315140
v -0.524058 0.097098 -0.217072
v -0.556337 0.097098 -0.110662
v -0.567237 0.097098 -0.000000
v -0.556337 0.097098 0.110662
v -0.524058 0.097098 0.217072
v -0.471640 0.097098 0.315140
v -0.401097 0.097098 0.401097
v -0.315140 0.097098 0.471640
v -0.217072 0.097098 0.524058
v -0.110662 0.097098 0.556337
v 0.110662 0.097098 0.556337
v 0.217072 0.097098 0.524058
v 0.315140 0.097098 0.471640
v 0.401097 0.097098 0.401097
v 0.471640 0.097098 0.315140
v 0.524058 0.097098 0.217072
v 0.556337 0.097098 0.110662
v 0.567236 0.097098 -0.000000
v 0.556337 0.097098 -0.110662
v 0.524058 0.097098 -0.217072
v 0.471640 0.097098 -0.315140
v 0.401097 0.097098 -0.401097
v 0.315140 0.097098 -0.471640
v 0.217072 0.097098 -0.524058
v 0.110662 0.097098 -0.556337
v -0.195090 0.543231 -0.980785
v -0.382683 0.543231 -0.923880
v -0.555570 0.543231 -0.831470
v -0.707107 0.543231 -0.707107
v -0.831470 0.543231 -0.555570
v -0.923880 0.543231 -0.382683
v -0.980785 0.543231 -0.195090
v -1.000000 0.543231 0.000000
v -0.980785 0.543231 0.195090
v -0.923880 0.543231 0.382683
v -0.831470 0.543231 0.555570
v -0.707107 0.543231 0.707107
v -0.555570 0.543231 0.831470
v -0.382683 0.543231 0.923880
v -0.195090 0.543231 0.980785
v 0.195090 0.543231 0.980785
v 0.382683 0.543231 0.923880
v 0.555570 0.543231 0.831470
v 0.707107 0.543231 0.707107
v 0.831470 0.543231 0.555570
v 0.923880 0.543231 0.382683
v 0.980785 0.543231 0.195090
v 1.000000 0.543231 0.000000
v 0.980785 0.543231 -0.195090
v 0.923880 0.543231 -0.382683
v 0.831470 0.543231 -0.555570
v 0.707107 0.543231 -0.707107
v 0.555570 0.543231 -0.831470
v 0.382683 0.543231 -0.923880
v 0.195090 0.543231 -0.980785
v -0.140267 0.410825 -0.705171
v -0.275144 0.410825 -0.664256
v -0.399447 0.410825 -0.597815
v -0.508400 0.410825 -0.508400
v -0.597815 0.410825 -0.399447
v -0.664256 0.410825 -0.275144
v -0.705171 0.410825 -0.140267
v -0.718986 0.410825 0.000000
v -0.705171 0.410825 0.140267
v -0.664256 0.410825 0.275144
v -0.597815 0.410825 0.399447
v -0.508400 0.410825 0.508400
v -0.399447 0.410825 0.597815
v -0.275144 0.410825 0.664256
v -0.140267 0.410825 0.705171
v 0.140267 0.410825 0.705171
v 0.275144 0.410825 0.664256
v 0.399447 0.410825 0.597815
v 0.508400 0.410825 0.508400
v 0.597815 0.410825 0.399447
v 0.664256 0.410825 0.275144
v 0.705171 0.410825 0.140267
v 0.718986 0.410825 0.000000
v 0.705171 0.410825 -0.140267
v 0.664256 0.410825 -0.275144
v 0.597815 0.410825 -0.399447
v 0.508400 0.410825 -0.508400
v 0.399447 0.410825 -0.597815
v 0.275144 0.410825 -0.664256
v 0.140267 0.410825 -0.705171
v -0.195090 -0.119301 -0.980785
v 0.000000 -0.543231 -0.718986
v -0.382683 -0.119301 -0.923880
v 0.140267 -0.543231 -0.705171
v -0.555570 -0.119301 -0.831470
v 0.275144 -0.543231 -0.664256
v -0.707107 -0.119301 -0.707107
v 0.399447 -0.543231 -0.597815
v -0.831470 -0.119301 -0.555570
v 0.508400 -0.543231 -0.508400
v -0.923880 -0.119301 -0.382683
v 0.597815 -0.543231 -0.399447
v -0.980785 -0.119301 -0.195090
v 0.664256 -0.543231 -0.275144
v -1.000000 -0.119301 0.000000
v 0.705171 -0.543231 -0.140267
v -0.980785 -0.119301 0.195090
v 0.718986 -0.543231 0.000000
v -0.923880 -0.119301 0.382683
v 0.705171 -0.543231 0.140267
v -0.831470 -0.119301 0.555570
v 0.664256 -0.543231 0.275144
v -0.707107 -0.119301 0.707107
v 0.597815 -0.543231 0.399447
v -0.555570 -0.119301 0.831470
v 0.508400 -0.543231 0.508400
v -0.382683 -0.119301 0.923880
v 0.399447 -0.543231 0.597815
v -0.195090 -0.119301 0.980785
v 0.275144 -0.543231 0.664256
v 0.000000 -0.119301 1.000000
v 0.140267 -0.543231 0.705171
v 0.195090 -0.119301 0.980785
v 0.000000 -0.543231 0.718986
v 0.382683 -0.119301 0.923880
v -0.140267 -0.543231 0.705171
v 0.555570 -0.119301 0.831470
v -0.275144 -0.543231 0.664256
v 0.707107 -0.119301 0.707107
v -0.399447 -0.543231 0.597815
v 0.831470 -0.119301 0.555570
v -0.508400 -0.543231 0.508400
v 0.923880 -0.119301 0.382683
v -0.597815 -0.543231 0.399447
v 0.980785 -0.119301 0.195090
v -0.664256 -0.543231 0.275144
v 1.000000 -0.119301 0.000000
v -0.705171 -0.543231 0.140267
v 0.980785 -0.119301 -0.195090
v -0.718986 -0.543231 0.000000
v 0.923880 -0.119301 -0.382683
v -0.705171 -0.543231 -0.140267
v 0.831470 -0.119301 -0.555570
v -0.664256 -0.543231 -0.275144
v 0.707107 -0.119301 -0.707107
v -0.597815 -0.543231 -0.399447
v 0.555570 -0.119301 -0.831470
v -0.508400 -0.543231 -0.508400
v 0.382683 -0.119301 -0.923880
v -0.399447 -0.543231 -0.597815
v 0.195090 -0.119301 -0.980785
v -0.275144 -0.543231 -0.664256
v 0.000000 -0.119301 -1.000000
v -0.140267 -0.543231 -0.705171
v 0.000000 -0.097098 -0.567236
v 0.110662 -0.097098 -0.556337
v 0.217072 -0.097098 -0.524058
v 0.315140 -0.097098 -0.471640
v 0.401097 -0.097098 -0.401097
v 0.471640 -0.097098 -0.315140
v 0.524058 -0.097098 -0.217072
v 0.556337 -0.097098 -0.110662
v 0.567237 -0.097098 -0.000000
v 0.556337 -0.097098 0.110662
v 0.524058 -0.097098 0.217072
v 0.471640 -0.097098 0.315140
v 0.401097 -0.097098 0.401097
v 0.315140 -0.097098 0.471640
v 0.217072 -0.097098 0.524058
v 0.110662 -0.097098 0.556337
v 0.000000 -0.097098 0.567236
v -0.110662 -0.097098 0.556337
v -0.217072 -0.097098 0.524058
v -0.315140 -0.097098 0.471640
v -0.401097 -0.097098 0.401097
v -0.471640 -0.097098 0.315140
v -0.524058 -0.097098 0.217072
v -0.556337 -0.097098 0.110662
v -0.567236 -0.097098 -0.000000
v -0.556337 -0.097098 -0.110662
v -0.524058 -0.097098 -0.217072
v -0.471640 -0.097098 -0.315140
v -0.401097 -0.097098 -0.401097
v -0.315140 -0.097098 -0.471640
v -0.217072 -0.097098 -0.524058
v -0.110662 -0.097098 -0.556337
v 0.195090 -0.543231 -0.980785
v 0.000000 -0.543231 -1.000000
v 0.382683 -0.543231 -0.923880
v 0.555570 -0.543231 -0.831470
v 0.707107 -0.543231 -0.707107
v 0.831470 -0.543231 -0.555570
v 0.923880 -0.543231 -0.382683
v 0.980785 -0.543231 -0.195090
v 1.000000 -0.543231 0.000000
v 0.980785 -0.543231 0.195090
v 0.923880 -0.543231 0.382683
v 0.831470 -0.543231 0.555570
v 0.707107 -0.543231 0.707107
v 0.555570 -0.543231 0.831470
v 0.382683 -0.543231 0.923880
v 0.195090 -0.543231 0.980785
v 0.000000 -0.543231 1.000000
v -0.195090 -0.543231 0.980785
v -0.382683 -0.543231 0.923880
v -0.555570 -0.543231 0.831470
v -0.707107 -0.543231 0.707107
v -0.831470 -0.543231 0.555570
v -0.923880 -0.543231 0.382683
v -0.980785 -0.543231 0.195090
v -1.000000 -0.543231 0.000000
v -0.980785 -0.543231 -0.195090
v -0.923880 -0.543231 -0.382683
v -0.831470 -0.543231 -0.555570
v -0.707107 -0.543231 -0.707107
v -0.555570 -0.543231 -0.831470
v -0.382683 -0.543231 -0.923880
v -0.195090 -0.543231 -0.980785
v 0.140267 -0.410825 -0.705171
v 0.000000 -0.410825 -0.718986
v 0.275144 -0.410825 -0.664256
v 0.399447 -0.410825 -0.597815
v 0.508400 -0.410825 -0.508400
v 0.597815 -0.410825 -0.399447
v 0.664256 -0.410825 -0.275144
v 0.705171 -0.410825 -0.140267
v 0.718986 -0.410825 0.000000
v 0.705171 -0.410825 0.140267
v 0.664256 -0.410825 0.275144
v 0.597815 -0.410825 0.399447
v 0.508400 -0.410825 0.508400
v 0.399447 -0.410825 0.597815
v 0.275144 -0.410825 0.664256
v 0.140267 -0.410825 0.705171
v 0.000000 -0.410825 0.718986
v -0.140267 -0.410825 0.705171
v -0.275144 -0.410825 0.664256
v -0.399447 -0.410825 0.597815
v -0.508400 -0.410825 0.508400
v -0.597815 -0.410825 0.399447
v -0.664256 -0.410825 0.275144
v -0.705171 -0.410825 0.140267
v -0.718986 -0.410825 0.000000
v -0.705171 -0.410825 -0.140267
v -0.664256 -0.410825 -0.275144
v -0.597815 -0.410825 -0.399447
v -0.508400 -0.410825 -0.508400
v -0.399447 -0.410825 -0.597815
v -0.275144 -0.410825 -0.664256
v -0.140267 -0.410825 -0.705171
v 0.195090 -0.119301 -0.980785
v 0.382683 -0.119301 -0.923880
v -0.140267 -0.543231 -0.705171
v 0.555570 -0.119301 -0.831470
v -0.275144 -0.543231 -0.664256
v 0.707107 -0.119301 -0.707107
v -0.399447 -0.543231 -0.597815
v 0.831470 -0.119301 -0.555570
v -0.508400 -0.543231 -0.508400
v 0.923880 -0.119301 -0.382683
v -0.597815 -0.543231 -0.399447
v 0.980785 -0.119301 -0.195090
v -0.664256 -0.543231 -0.275144
v 1.000000 -0.119301 0.000000
v -0.705171 -0.543231 -0.140267
v 0.980785 -0.119301 0.195090
v -0.718986 -0.543231 0.000000
v 0.923880 -0.119301 0.382683
v -0.705171 -0.543231 0.140267
v 0.831470 -0.119301 0.555570
v -0.664256 -0.543231 0.275144
v 0.707107 -0.119301 0.707107
v -0.597815 -0.543231 0.399447
v 0.555570 -0.119301 0.831470
v -0.508400 -0.543231 0.508400
v 0.382683 -0.119301 0.923880
v -0.399447 -0.543231 0.597815
v 0.195090 -0.119301 0.980785
v -0.275144 -0.543231 0.664256
v -0.140267 -0.543231 0.705171
v -0.195090 -0.119301 0.980785
v -0.382683 -0.119301 0.923880
v 0.140267 -0.543231 0.705171
v -0.555570 -0.119301 0.831470
v 0.275144 -0.543231 0.664256
v -0.707107 -0.119301 0.707107
v 0.399447 -0.543231 0.597815
v -0.831470 -0.119301 0.555570
v 0.508400 -0.543231 0.508400
v -0.923880 -0.119301 0.382683
v 0.597815 -0.543231 0.399447
v -0.980785 -0.119301 0.195090
v 0.664256 -0.543231 0.275144
v -1.000000 -0.119301 0.000000
v 0.705171 -0.543231 0.140267
v -0.980785 -0.119301 -0.195090
v 0.718986 -0.543231 0.000000
v -0.923880 -0.119301 -0.382683
v 0.705171 -0.543231 -0.140267
v -0.831470 -0.119301 -0.555570
v 0.664256 -0.543231 -0.275144
v -0.707107 -0.119301 -0.707107
v 0.597815 -0.543231 -0.399447
v -0.555570 -0.119301 -0.831470
v 0.508400 -0.543231 -0.508400
v -0.382683 -0.119301 -0.923880
v 0.399447 -0.543231 -0.597815
v -0.195090 -0.119301 -0.980785
v 0.275144 -0.543231 -0.664256
v 0.140267 -0.543231 -0.705171
v -0.110662 -0.097098 -0.556337
v -0.217072 -0.097098 -0.524058
v -0.315140 -0.097098 -0.471640
v -0.401097 -0.097098 -0.401097
v -0.471640 -0.097098 -0.315140
v -0.524058 -0.097098 -0.217072
v -0.556337 -0.097098 -0.110662
v -0.567237 -0.097098 -0.000000
v -0.556337 -0.097098 0.110662
v -0.524058 -0.097098 0.217072
v -0.471640 -0.097098 0.315140
v -0.401097 -0.097098 0.401097
v -0.315140 -0.097098 0.471640
v -0.217072 -0.097098 0.524058
v -0.110662 -0.097098 0.556337
v 0.110662 -0.097098 0.556337
v 0.217072 -0.097098 0.524058
v 0.315140 -0.097098 0.471640
v 0.401097 -0.097098 0.401097
v 0.471640 -0.097098 0.315140
v 0.524058 -0.097098 0.217072
v 0.556337 -0.097098 0.110662
v 0.567236 -0.097098 -0.000000
v 0.556337 -0.097098 -0.110662
v 0.524058 -0.097098 -0.217072
v 0.471640 -0.097098 -0.315140
v 0.401097 -0.097098 -0.401097
v 0.315140 -0.097098 -0.471640
v 0.217072 -0.097098 -0.524058
v 0.110662 -0.097098 -0.556337
v -0.195090 -0.543231 -0.980785
v -0.382683 -0.543231 -0.923880
v -0.555570 -0.543231 -0.831470
v -0.707107 -0.543231 -0.707107
v -0.831470 -0.543231 -0.555570
v -0.923880 -0.543231 -0.382683
v -0.980785 -0.543231 -0.195090
v -1.000000 -0.543231 0.000000
v -0.980785 -0.543231 0.195090
v -0.923880 -0.543231 0.382683
v -0.831470 -0.543231 0.555570
v -0.707107 -0.543231 0.707107
v -0.555570 -0.543231 0.831470
v -0.382683 -0.543231 0.923880
v -0.195090 -0.543231 0.980785
v 0.195090 -0.543231 0.980785
v 0.382683 -0.543231 0.923880
v 0.555570 -0.543231 0.831470
v 0.707107 -0.543231 0.707107
v 0.831470 -0.543231 0.555570
v 0.923880 -0.543231 0.382683
v 0.980785 -0.543231 0.195090
v 1.000000 -0.543231 0.000000
v 0.980785 -0.543231 -0.195090
v 0.923880 -0.543231 -0.382683
v 0.831470 -0.543231 -0.555570
v 0.707107 -0.543231 -0.707107
v 0.555570 -0.543231 -0.831470
v 0.382683 -0.543231 -0.923880
v 0.195090 -0.543231 -0.980785
v -0.140267 -0.410825 -0.705171
v -0.275144 -0.410825 -0.664256
v -0.399447 -0.410825 -0.597815
v -0.508400 -0.410825 -0.508400
v -0.597815 -0.410825 -0.399447
v -0.664256 -0.410825 -0.275144
v -0.705171 -0.410825 -0.140267
v -0.718986 -0.410825 0.000000
v -0.705171 -0.410825 0.140267
v -0.664256 -0.410825 0.275144
v -0.597815 -0.410825 0.399447
v -0.508400 -0.410825 0.508400
v -0.399447 -0.410825 0.597815
v -0.275144 -0.410825 0.664256
v -0.140267 -0.410825 0.705171
v 0.140267 -0.410825 0.705171
v 0.275144 -0.410825 0.664256
v 0.399447 -0.410825 0.597815
v 0.508400 -0.410825 0.508400
v 0.597815 -0.410825 0.399447
v 0.664256 -0.410825 0.275144
v 0.705171 -0.410825 0.140267
v 0.718986 -0.410825 0.000000
v 0.705171 -0.410825 -0.140267
v 0.664256 -0.410825 -0.275144
v 0.597815 -0.410825 -0.399447
v 0.508400 -0.410825 -0.508400
v 0.399447 -0.410825 -0.597815
v 0.275144 -0.410825 -0.664256
v 0.140267 -0.410825 -0.705171
vn 0.0980 -0.0000 -0.9952
vn 0.2903 -0.0000 -0.9569
vn 0.4714 -0.0000 -0.8819
vn 0.6344 -0.0000 -0.7730
vn 0.7730 -0.0000 -0.6344
vn 0.8819 -0.0000 -0.4714
vn 0.9569 -0.0000 -0.2903
vn 0.9952 -0.0000 -0.0980
vn 0.9952 -0.0000 0.0980
vn 0.9569 -0.0000 0.2903
vn 0.8819 -0.0000 0.4714
vn 0.7730 -0.0000 0.6344
vn 0.6344 -0.0000 0.7730
vn 0.4714 -0.0000 0.8819
vn 0.2903 -0.0000 0.9569
vn 0.0980 -0.0000 0.9952
vn -0.0980 -0.0000 0.9952
vn -0.2903 -0.0000 0.9569
vn -0.4714 -0.0000 0.8819
vn -0.6344 -0.0000 0.7730
vn -0.7730 -0.0000 0.6344
vn -0.8819 -0.0000 0.4714
vn -0.9569 -0.0000 0.2903
vn -0.9952 -0.0000 0.0980
vn -0.9952 -0.0000 -0.0980
vn -0.9569 -0.0000 -0.2903
vn -0.8819 -0.0000 -0.4714
vn -0.7730 -0.0000 -0.6344
vn -0.6344 -0.0000 -0.7730
vn -0.4714 -0.0000 -0.8819
vn -0.2903 -0.0000 -0.9569
vn -0.0980 -0.0000 -0.9952
vn 0.0149 -0.9987 -0.0493
vn -0.0050 -0.9987 -0.0512
vn -0.0149 -0.9987 -0.0493
vn -0.0243 -0.9987 -0.0454
vn -0.0327 -0.9987 -0.0398
vn -0.0398 -0.9987 -0.0327
vn -0.0454 -0.9987 -0.0243
vn -0.0493 -0.9987 -0.0149
vn -0.0512 -0.9987 -0.0050
vn -0.0512 -0.9987 0.0050
vn -0.0493 -0.9987 0.0149
vn -0.0454 -0.9987 0.0243
vn -0.0398 -0.9987 0.0327
vn -0.0327 -0.9987 0.0398
vn -0.0243 -0.9987 0.0454
vn -0.0149 -0.9987 0.0493
vn -0.0050 -0.9987 0.0512
vn 0.0050 -0.9987 0.0512
vn 0.0149 -0.9987 0.0493
vn 0.0243 -0.9987 0.0454
vn 0.0327 -0.9987 0.0398
vn 0.0398 -0.9987 0.0327
vn 0.0454 -0.9987 0.0243
vn 0.0493 -0.9987 0.0149
vn 0.0512 -0.9987 0.0050
vn 0.0512 -0.9987 -0.0050
vn 0.0493 -0.9987 -0.0149
vn 0.0454 -0.9987 -0.0243
vn 0.0398 -0.9987 -0.0327
vn 0.0327 -0.9987 -0.0398
vn 0.0243 -0.9987 -0.0454
vn 0.0050 -0.9987 -0.0512
vn 0.0975 -0.0994 -0.9903
vn 0.4691 -0.0994 -0.8776
vn 0.6312 -0.0994 -0.7692
vn 0.7692 -0.0994 -0.6312
vn 0.8776 -0.0994 -0.4691
vn 0.9522 -0.0994 -0.2888
vn 0.9903 -0.0994 -0.0975
vn 0.9903 -0.0994 0.0975
vn 0.9522 -0.0994 0.2888
vn 0.8776 -0.0994 0.4691
vn 0.7692 -0.0994 0.6312
vn 0.6312 -0.0994 0.7692
vn 0.4691 -0.0994 0.8776
vn 0.2888 -0.0994 0.9522
vn 0.0975 -0.0994 0.9903
vn -0.0975 -0.0994 0.9903
vn -0.2888 -0.0994 0.9522
vn -0.4691 -0.0994 0.8776
vn -0.6312 -0.0994 0.7692
vn -0.7692 -0.0994 0.6312
vn -0.8776 -0.0994 0.4691
vn -0.9522 -0.0994 0.2888
vn -0.9903 -0.0994 0.0975
vn -0.9903 -0.0994 -0.0975
vn -0.9522 -0.0994 -0.2888
vn -0.8776 -0.0994 -0.4691
vn -0.7692 -0.0994 -0.6312
vn -0.6312 -0.0994 -0.7692
vn -0.4691 -0.0994 -0.8776
vn -0.2888 -0.0994 -0.9522
vn -0.0975 -0.0994 -0.9903
vn 0.2888 -0.0994 -0.9522
vn -0.0000 1.0000 -0.0000
vn 0.0149 0.9987 -0.0493
vn -0.0050 0.9987 -0.0512
vn -0.0149 0.9987 -0.0493
vn -0.0243 0.9987 -0.0454
vn -0.0327 0.9987 -0.0398
vn -0.0398 0.9987 -0.0327
vn -0.0454 0.9987 -0.0243
vn -0.0493 0.9987 -0.0149
vn -0.0512 0.9987 -0.0050
vn -0.0512 0.9987 0.0050
vn -0.0493 0.9987 0.0149
vn -0.0454 0.9987 0.0243
vn -0.0398 0.9987 0.0327
vn -0.0327 0.9987 0.0398
vn -0.0243 0.9987 0.0454
vn -0.0149 0.9987 0.0493
vn -0.0050 0.9987 0.0512
vn 0.0050 0.9987 0.0512
vn 0.0149 0.9987 0.0493
vn 0.0243 0.9987 0.0454
vn 0.0327 0.9987 0.0398
vn 0.0398 0.9987 0.0327
vn 0.0454 0.9987 0.0243
vn 0.0493 0.9987 0.0149
vn 0.0512 0.9987 0.0050
vn 0.0512 0.9987 -0.0050
vn 0.0493 0.9987 -0.0149
vn 0.0454 0.9987 -0.0243
vn 0.0398 0.9987 -0.0327
vn 0.0327 0.9987 -0.0398
vn 0.0243 0.9987 -0.0454
vn 0.0050 0.9987 -0.0512
vn 0.0975 0.0994 -0.9903
vn 0.4691 0.0994 -0.8776
vn 0.6312 0.0994 -0.7692
vn 0.7692 0.0994 -0.6312
vn 0.8776 0.0994 -0.4691
vn 0.9522 0.0994 -0.2888
vn 0.9903 0.0994 -0.0975
vn 0.9903 0.0994 0.0975
vn 0.9522 0.0994 0.2888
vn 0.8776 0.0994 0.4691
vn 0.7692 0.0994 0.6312
vn 0.6312 0.0994 0.7692
vn 0.4691 0.0994 0.8776
vn 0.2888 0.0994 0.9522
vn 0.0975 0.0994 0.9903
vn -0.0975 0.0994 0.9903
vn -0.2888 0.0994 0.9522
vn -0.4691 0.0994 0.8776
vn -0.6312 0.0994 0.7692
vn -0.7692 0.0994 0.6312
vn -0.8776 0.0994 0.4691
vn -0.9522 0.0994 0.2888
vn -0.9903 0.0994 0.0975
vn -0.9903 0.0994 -0.0975
vn -0.9522 0.0994 -0.2888
vn -0.8776 0.0994 -0.4691
vn -0.7692 0.0994 -0.6312
vn -0.6312 0.0994 -0.7692
vn -0.4691 0.0994 -0.8776
vn -0.2888 0.0994 -0.9522
vn -0.0975 0.0994 -0.9903
vn 0.2888 0.0994 -0.9522
vn -0.0000 -1.0000 -0.0000
vt 1.000000 0.814732
vt 1.000000 1.000000
vt 0.968750 1.000000
vt 0.968750 0.814732
vt 0.937500 1.000000
vt 0.937500 0.814732
vt 0.906250 1.000000
vt 0.906250 0.814732
vt 0.875000 1.000000
vt 0.875000 0.814732
vt 0.843750 1.000000
vt 0.843750 0.814732
vt 0.812500 1.000000
vt 0.812500 0.814732
vt 0.781250 1.000000
vt 0.781250 0.814732
vt 0.750000 1.000000
vt 0.750000 0.814732
vt 0.718750 1.000000
vt 0.718750 0.814732
vt 0.687500 1.000000
vt 0.687500 0.814732
vt 0.656250 1.000000
vt 0.656250 0.814732
vt 0.625000 1.000000
vt 0.625000 0.814732
vt 0.593750 1.000000
vt 0.593750 0.814732
vt 0.562500 1.000000
vt 0.562500 0.814732
vt 0.531250 1.000000
vt 0.531250 0.814732
vt 0.500000 1.000000
vt 0.500000 0.814732
vt 0.468750 1.000000
vt 0.468750 0.814732
vt 0.437500 1.000000
vt 0.437500 0.814732
vt 0.406250 1.000000
vt 0.406250 0.814732
vt 0.375000 1.000000
vt 0.375000 0.814732
vt 0.343750 1.000000
vt 0.343750 0.814732
vt 0.312500 1.000000
vt 0.312500 0.814732
vt 0.281250 1.000000
vt 0.281250 0.814732
vt 0.250000 1.000000
vt 0.250000 0.814732
vt 0.218750 1.000000
vt 0.218750 0.814732
vt 0.187500 1.000000
vt 0.187500 0.814732
vt 0.156250 1.000000
vt 0.156250 0.814732
vt 0.125000 1.000000
vt 0.125000 0.814732
vt 0.093750 1.000000
vt 0.093750 0.814732
vt 0.062500 1.000000
vt 0.062500 0.814732
vt 0.154133 0.106524
vt 0.183965 0.090578
vt 0.031250 1.000000
vt 0.031250 0.814732
vt 0.000000 1.000000
vt 0.000000 0.814732
vt 0.968750 0.782366
vt 0.937500 0.782366
vt 0.031250 0.782366
vt 0.000000 0.782366
vt 0.062500 0.782366
vt 0.093750 0.782366
vt 0.125000 0.782366
vt 0.156250 0.782366
vt 0.187500 0.782366
vt 0.218750 0.782366
vt 0.250000 0.782366
vt 0.281250 0.782366
vt 0.312500 0.782366
vt 0.343750 0.782366
vt 0.375000 0.782366
vt 0.406250 0.782366
vt 0.437500 0.782366
vt 0.468750 0.782366
vt 0.500000 0.782366
vt 0.531250 0.782366
vt 0.562500 0.782366
vt 0.593750 0.782366
vt 0.625000 0.782366
vt 0.656250 0.782366
vt 0.687500 0.782366
vt 0.718750 0.782366
vt 0.750000 0.782366
vt 0.781250 0.782366
vt 0.812500 0.782366
vt 0.843750 0.782366
vt 0.875000 0.782366
vt 0.906250 0.782366
vt 1.000000 0.782366
vt 1.000000 0.750000
vt 0.968750 0.750000
vt 0.937500 0.750000
vt 0.906250 0.750000
vt 0.875000 0.750000
vt 0.843750 0.750000
vt 0.812500 0.750000
vt 0.781250 0.750000
vt 0.750000 0.750000
vt 0.718750 0.750000
vt 0.687500 0.750000
vt 0.656250 0.750000
vt 0.625000 0.750000
vt 0.593750 0.750000
vt 0.562500 0.750000
vt 0.531250 0.750000
vt 0.500000 0.750000
vt 0.468750 0.750000
vt 0.437500 0.750000
vt 0.406250 0.750000
vt 0.375000 0.750000
vt 0.343750 0.750000
vt 0.312500 0.750000
vt 0.281250 0.750000
vt 0.250000 0.750000
vt 0.218750 0.750000
vt 0.187500 0.750000
vt 0.156250 0.750000
vt 0.125000 0.750000
vt 0.093750 0.750000
vt 0.062500 0.750000
vt 0.031250 0.750000
vt 0.000000 0.750000
vt 0.250000 0.422556
vt 0.283664 0.419241
vt 0.296822 0.485388
vt 0.250000 0.490000
vt 0.316035 0.409421
vt 0.341844 0.471731
vt 0.345867 0.393476
vt 0.383337 0.449553
vt 0.372016 0.372016
vt 0.419706 0.419706
vt 0.393476 0.345867
vt 0.449553 0.383337
vt 0.409421 0.316035
vt 0.471731 0.341844
vt 0.419241 0.283664
vt 0.485388 0.296822
vt 0.422557 0.250000
vt 0.490000 0.250000
vt 0.419241 0.216336
vt 0.485388 0.203178
vt 0.409422 0.183965
vt 0.471731 0.158156
vt 0.393476 0.154133
vt 0.449553 0.116663
vt 0.372016 0.127984
vt 0.419706 0.080294
vt 0.345867 0.106524
vt 0.383337 0.050447
vt 0.316034 0.090578
vt 0.341844 0.028269
vt 0.283664 0.080759
vt 0.296822 0.014612
vt 0.250000 0.077443
vt 0.250000 0.010000
vt 0.216336 0.080759
vt 0.203178 0.014612
vt 0.158156 0.028269
vt 0.116663 0.050447
vt 0.127984 0.127984
vt 0.080294 0.080294
vt 0.106524 0.154133
vt 0.050447 0.116663
vt 0.090578 0.183965
vt 0.028269 0.158156
vt 0.080759 0.216336
vt 0.014612 0.203178
vt 0.077443 0.250000
vt 0.010000 0.250000
vt 0.080759 0.283664
vt 0.014612 0.296822
vt 0.090578 0.316034
vt 0.028269 0.341844
vt 0.106524 0.345867
vt 0.050447 0.383337
vt 0.127984 0.372016
vt 0.080294 0.419706
vt 0.154133 0.393475
vt 0.116663 0.449553
vt 0.183965 0.409421
vt 0.158156 0.471731
vt 0.216336 0.419241
vt 0.203178 0.485388
s 0
usemtl マテリアル
f 63/1/1 130/2/1 129/3/1 61/4/1
f 61/4/2 129/3/2 131/5/2 59/6/2
f 59/6/3 131/5/3 132/7/3 57/8/3
f 57/8/4 132/7/4 133/9/4 55/10/4
f 55/10/5 133/9/5 134/11/5 53/12/5
f 53/12/6 134/11/6 135/13/6 51/14/6
f 51/14/7 135/13/7 136/15/7 49/16/7
f 49/16/8 136/15/8 137/17/8 47/18/8
f 47/18/9 137/17/9 138/19/9 45/20/9
f 45/20/10 138/19/10 139/21/10 43/22/10
f 43/22/11 139/21/11 140/23/11 41/24/11
f 41/24/12 140/23/12 141/25/12 39/26/12
f 39/26/13 141/25/13 142/27/13 37/28/13
f 37/28/14 142/27/14 143/29/14 35/30/14
f 35/30/15 143/29/15 144/31/15 33/32/15
f 33/32/16 144/31/16 145/33/16 31/34/16
f 31/34/17 145/33/17 146/35/17 29/36/17
f 29/36/18 146/35/18 147/37/18 27/38/18
f 27/38/19 147/37/19 148/39/19 25/40/19
f 25/40/20 148/39/20 149/41/20 23/42/20
f 23/42/21 149/41/21 150/43/21 21/44/21
f 21/44/22 150/43/22 151/45/22 19/46/22
f 19/46/23 151/45/23 152/47/23 17/48/23
f 17/48/24 152/47/24 153/49/24 15/50/24
f 15/50/25 153/49/25 154/51/25 13/52/25
f 13/52/26 154/51/26 155/53/26 11/54/26
f 11/54/27 155/53/27 156/55/27 9/56/27
f 9/56/28 156/55/28 157/57/28 7/58/28
f 7/58/29 157/57/29 158/59/29 5/60/29
f 5/60/30 158/59/30 159/61/30 3/62/30
f 40/63/3 38/64/3 179/64/3 180/63/3
f 3/62/31 159/61/31 160/65/31 1/66/31
f 1/66/32 160/65/32 130/67/32 63/68/32
f 98/69/33 61/4/33 59/6/33 99/70/33
f 128/71/34 1/66/34 63/68/34 97/72/34
f 127/73/35 3/62/35 1/66/35 128/71/35
f 126/74/36 5/60/36 3/62/36 127/73/36
f 125/75/37 7/58/37 5/60/37 126/74/37
f 124/76/38 9/56/38 7/58/38 125/75/38
f 123/77/39 11/54/39 9/56/39 124/76/39
f 122/78/40 13/52/40 11/54/40 123/77/40
f 121/79/41 15/50/41 13/52/41 122/78/41
f 120/80/42 17/48/42 15/50/42 121/79/42
f 119/81/43 19/46/43 17/48/43 120/80/43
f 118/82/44 21/44/44 19/46/44 119/81/44
f 117/83/45 23/42/45 21/44/45 118/82/45
f 116/84/46 25/40/46 23/42/46 117/83/46
f 115/85/47 27/38/47 25/40/47 116/84/47
f 114/86/48 29/36/48 27/38/48 115/85/48
f 113/87/49 31/34/49 29/36/49 114/86/49
f 112/88/50 33/32/50 31/34/50 113/87/50
f 111/89/51 35/30/51 33/32/51 112/88/51
f 110/90/52 37/28/52 35/30/52 111/89/52
f 109/91/53 39/26/53 37/28/53 110/90/53
f 108/92/54 41/24/54 39/26/54 109/91/54
f 107/93/55 43/22/55 41/24/55 108/92/55
f 106/94/56 45/20/56 43/22/56 107/93/56
f 105/95/57 47/18/57 45/20/57 106/94/57
f 104/96/58 49/16/58 47/18/58 105/95/58
f 103/97/59 51/14/59 49/16/59 104/96/59
f 102/98/60 53/12/60 51/14/60 103/97/60
f 101/99/61 55/10/61 53/12/61 102/98/61
f 100/100/62 57/8/62 55/10/62 101/99/62
f 99/70/63 59/6/63 57/8/63 100/100/63
f 97/101/64 63/1/64 61/4/64 98/69/64
f 65/102/65 97/101/65 98/69/65 66/103/65
f 67/104/66 99/70/66 100/100/66 68/105/66
f 68/105/67 100/100/67 101/99/67 69/106/67
f 69/106/68 101/99/68 102/98/68 70/107/68
f 70/107/69 102/98/69 103/97/69 71/108/69
f 71/108/70 103/97/70 104/96/70 72/109/70
f 72/109/71 104/96/71 105/95/71 73/110/71
f 73/110/72 105/95/72 106/94/72 74/111/72
f 74/111/73 106/94/73 107/93/73 75/112/73
f 75/112/74 107/93/74 108/92/74 76/113/74
f 76/113/75 108/92/75 109/91/75 77/114/75
f 77/114/76 109/91/76 110/90/76 78/115/76
f 78/115/77 110/90/77 111/89/77 79/116/77
f 79/116/78 111/89/78 112/88/78 80/117/78
f 80/117/79 112/88/79 113/87/79 81/118/79
f 81/118/80 113/87/80 114/86/80 82/119/80
f 82/119/81 114/86/81 115/85/81 83/120/81
f 83/120/82 115/85/82 116/84/82 84/121/82
f 84/121/83 116/84/83 117/83/83 85/122/83
f 85/122/84 117/83/84 118/82/84 86/123/84
f 86/123/85 118/82/85 119/81/85 87/124/85
f 87/124/86 119/81/86 120/80/86 88/125/86
f 88/125/87 120/80/87 121/79/87 89/126/87
f 89/126/88 121/79/88 122/78/88 90/127/88
f 90/127/89 122/78/89 123/77/89 91/128/89
f 91/128/90 123/77/90 124/76/90 92/129/90
f 92/129/91 124/76/91 125/75/91 93/130/91
f 93/130/92 125/75/92 126/74/92 94/131/92
f 94/131/93 126/74/93 127/73/93 95/132/93
f 95/132/94 127/73/94 128/71/94 96/133/94
f 96/133/95 128/71/95 97/72/95 65/134/95
f 66/103/96 98/69/96 99/70/96 67/104/96
f 2/135/97 4/136/97 129/137/97 130/138/97
f 4/136/97 6/139/97 131/140/97 129/137/97
f 6/139/97 8/141/97 132/142/97 131/140/97
f 8/141/97 10/143/97 133/144/97 132/142/97
f 10/143/97 12/145/97 134/146/97 133/144/97
f 12/145/97 14/147/97 135/148/97 134/146/97
f 14/147/97 16/149/97 136/150/97 135/148/97
f 16/149/97 18/151/97 137/152/97 136/150/97
f 18/151/97 20/153/97 138/154/97 137/152/97
f 20/153/97 22/155/97 139/156/97 138/154/97
f 22/155/97 24/157/97 140/158/97 139/156/97
f 24/157/97 26/159/97 141/160/97 140/158/97
f 26/159/97 28/161/97 142/162/97 141/160/97
f 28/161/97 30/163/97 143/164/97 142/162/97
f 30/163/97 32/165/97 144/166/97 143/164/97
f 32/165/97 34/167/97 145/168/97 144/166/97
f 34/167/97 36/169/97 146/170/97 145/168/97
f 36/169/97 38/64/97 147/171/97 146/170/97
f 38/64/97 40/63/97 148/172/97 147/171/97
f 40/63/97 42/173/97 149/174/97 148/172/97
f 42/173/97 44/175/97 150/176/97 149/174/97
f 44/175/97 46/177/97 151/178/97 150/176/97
f 46/177/97 48/179/97 152/180/97 151/178/97
f 48/179/97 50/181/97 153/182/97 152/180/97
f 50/181/97 52/183/97 154/184/97 153/182/97
f 52/183/97 54/185/97 155/186/97 154/184/97
f 54/185/97 56/187/97 156/188/97 155/186/97
f 56/187/97 58/189/97 157/190/97 156/188/97
f 58/189/97 60/191/97 158/192/97 157/190/97
f 60/191/97 62/193/97 159/194/97 158/192/97
f 62/193/97 64/195/97 160/196/97 159/194/97
f 64/195/97 2/135/97 130/138/97 160/196/97
f 161/136/97 162/135/97 192/195/97 191/193/97 190/191/97 189/189/97 188/187/97 187/185/97 186/183/97 185/181/97 184/179/97 183/177/97 182/175/97 181/173/97 180/63/97 179/64/97 178/169/97 177/167/97 176/165/97 175/163/97 174/161/97 173/159/97 172/157/97 171/155/97 170/153/97 169/151/97 168/149/97 167/147/97 166/145/97 165/143/97 164/141/97 163/139/97
f 14/147/22 12/145/22 166/145/22 167/147/22
f 42/173/4 40/63/4 180/63/4 181/173/4
f 16/149/23 14/147/23 167/147/23 168/149/23
f 44/175/5 42/173/5 181/173/5 182/175/5
f 18/151/24 16/149/24 168/149/24 169/151/24
f 46/177/6 44/175/6 182/175/6 183/177/6
f 20/153/25 18/151/25 169/151/25 170/153/25
f 48/179/7 46/177/7 183/177/7 184/179/7
f 22/155/26 20/153/26 170/153/26 171/155/26
f 50/181/8 48/179/8 184/179/8 185/181/8
f 24/157/27 22/155/27 171/155/27 172/157/27
f 52/183/9 50/181/9 185/181/9 186/183/9
f 26/159/28 24/157/28 172/157/28 173/159/28
f 54/185/10 52/183/10 186/183/10 187/185/10
f 28/161/29 26/159/29 173/159/29 174/161/29
f 56/187/11 54/185/11 187/185/11 188/187/11
f 30/163/30 28/161/30 174/161/30 175/163/30
f 4/136/17 2/135/17 162/135/17 161/136/17
f 58/189/12 56/187/12 188/187/12 189/189/12
f 32/165/31 30/163/31 175/163/31 176/165/31
f 6/139/18 4/136/18 161/136/18 163/139/18
f 60/191/13 58/189/13 189/189/13 190/191/13
f 34/167/32 32/165/32 176/165/32 177/167/32
f 8/141/19 6/139/19 163/139/19 164/141/19
f 62/193/14 60/191/14 190/191/14 191/193/14
f 36/169/1 34/167/1 177/167/1 178/169/1
f 10/143/20 8/141/20 164/141/20 165/143/20
f 64/195/15 62/193/15 191/193/15 192/195/15
f 38/64/2 36/169/2 178/169/2 179/64/2
f 12/145/21 10/143/21 165/143/21 166/145/21
f 2/135/16 64/195/16 192/195/16 162/135/16
f 63/1/32 250/4/32 313/3/32 130/2/32
f 250/4/31 248/6/31 314/5/31 313/3/31
f 248/6/30 246/8/30 315/7/30 314/5/30
f 246/8/29 244/10/29 316/9/29 315/7/29
f 244/10/28 242/12/28 317/11/28 316/9/28
f 242/12/27 240/14/27 318/13/27 317/11/27
f 240/14/26 238/16/26 319/15/26 318/13/26
f 238/16/25 236/18/25 320/17/25 319/15/25
f 236/18/24 234/20/24 321/19/24 320/17/24
f 234/20/23 232/22/23 322/21/23 321/19/23
f 232/22/22 230/24/22 323/23/22 322/21/22
f 230/24/21 228/26/21 324/25/21 323/23/21
f 228/26/20 226/28/20 325/27/20 324/25/20
f 226/28/19 224/30/19 326/29/19 325/27/19
f 224/30/18 223/32/18 327/31/18 326/29/18
f 223/32/17 31/34/17 145/33/17 327/31/17
f 31/34/16 220/36/16 328/35/16 145/33/16
f 220/36/15 218/38/15 329/37/15 328/35/15
f 218/38/14 216/40/14 330/39/14 329/37/14
f 216/40/13 214/42/13 331/41/13 330/39/13
f 214/42/12 212/44/12 332/43/12 331/41/12
f 212/44/11 210/46/11 333/45/11 332/43/11
f 210/46/10 208/48/10 334/47/10 333/45/10
f 208/48/9 206/50/9 335/49/9 334/47/9
f 206/50/8 204/52/8 336/51/8 335/49/8
f 204/52/7 202/54/7 337/53/7 336/51/7
f 202/54/6 200/56/6 338/55/6 337/53/6
f 200/56/5 198/58/5 339/57/5 338/55/5
f 198/58/4 196/60/4 340/59/4 339/57/4
f 196/60/3 194/62/3 341/61/3 340/59/3
f 229/63/30 360/63/30 359/64/30 227/64/30
f 194/62/2 193/66/2 342/65/2 341/61/2
f 193/66/1 63/68/1 130/67/1 342/65/1
f 283/69/35 284/70/35 248/6/35 250/4/35
f 312/71/64 97/72/64 63/68/64 193/66/64
f 311/73/33 312/71/33 193/66/33 194/62/33
f 310/74/63 311/73/63 194/62/63 196/60/63
f 309/75/62 310/74/62 196/60/62 198/58/62
f 308/76/61 309/75/61 198/58/61 200/56/61
f 307/77/60 308/76/60 200/56/60 202/54/60
f 306/78/59 307/77/59 202/54/59 204/52/59
f 305/79/58 306/78/58 204/52/58 206/50/58
f 304/80/57 305/79/57 206/50/57 208/48/57
f 303/81/56 304/80/56 208/48/56 210/46/56
f 302/82/55 303/81/55 210/46/55 212/44/55
f 301/83/54 302/82/54 212/44/54 214/42/54
f 300/84/53 301/83/53 214/42/53 216/40/53
f 299/85/52 300/84/52 216/40/52 218/38/52
f 298/86/51 299/85/51 218/38/51 220/36/51
f 113/87/50 298/86/50 220/36/50 31/34/50
f 297/88/49 113/87/49 31/34/49 223/32/49
f 296/89/48 297/88/48 223/32/48 224/30/48
f 295/90/47 296/89/47 224/30/47 226/28/47
f 294/91/46 295/90/46 226/28/46 228/26/46
f 293/92/45 294/91/45 228/26/45 230/24/45
f 292/93/44 293/92/44 230/24/44 232/22/44
f 291/94/43 292/93/43 232/22/43 234/20/43
f 290/95/42 291/94/42 234/20/42 236/18/42
f 289/96/41 290/95/41 236/18/41 238/16/41
f 288/97/40 289/96/40 238/16/40 240/14/40
f 287/98/39 288/97/39 240/14/39 242/12/39
f 286/99/38 287/98/38 242/12/38 244/10/38
f 285/100/37 286/99/37 244/10/37 246/8/37
f 284/70/36 285/100/36 246/8/36 248/6/36
f 97/101/34 283/69/34 250/4/34 63/1/34
f 65/102/95 253/103/95 283/69/95 97/101/95
f 254/104/93 255/105/93 285/100/93 284/70/93
f 255/105/92 256/106/92 286/99/92 285/100/92
f 256/106/91 257/107/91 287/98/91 286/99/91
f 257/107/90 258/108/90 288/97/90 287/98/90
f 258/108/89 259/109/89 289/96/89 288/97/89
f 259/109/88 260/110/88 290/95/88 289/96/88
f 260/110/87 261/111/87 291/94/87 290/95/87
f 261/111/86 262/112/86 292/93/86 291/94/86
f 262/112/85 263/113/85 293/92/85 292/93/85
f 263/113/84 264/114/84 294/91/84 293/92/84
f 264/114/83 265/115/83 295/90/83 294/91/83
f 265/115/82 266/116/82 296/89/82 295/90/82
f 266/116/81 267/117/81 297/88/81 296/89/81
f 267/117/80 81/118/80 113/87/80 297/88/80
f 81/118/79 268/119/79 298/86/79 113/87/79
f 268/119/78 269/120/78 299/85/78 298/86/78
f 269/120/77 270/121/77 300/84/77 299/85/77
f 270/121/76 271/122/76 301/83/76 300/84/76
f 271/122/75 272/123/75 302/82/75 301/83/75
f 272/123/74 273/124/74 303/81/74 302/82/74
f 273/124/73 274/125/73 304/80/73 303/81/73
f 274/125/72 275/126/72 305/79/72 304/80/72
f 275/126/71 276/127/71 306/78/71 305/79/71
f 276/127/70 277/128/70 307/77/70 306/78/70
f 277/128/69 278/129/69 308/76/69 307/77/69
f 278/129/68 279/130/68 309/75/68 308/76/68
f 279/130/67 280/131/67 310/74/67 309/75/67
f 280/131/66 281/132/66 311/73/66 310/74/66
f 281/132/96 282/133/96 312/71/96 311/73/96
f 282/133/65 65/134/65 97/72/65 312/71/65
f 253/103/94 254/104/94 284/70/94 283/69/94
f 2/135/97 130/138/97 313/137/97 195/136/97
f 195/136/97 313/137/97 314/140/97 197/139/97
f 197/139/97 314/140/97 315/142/97 199/141/97
f 199/141/97 315/142/97 316/144/97 201/143/97
f 201/143/97 316/144/97 317/146/97 203/145/97
f 203/145/97 317/146/97 318/148/97 205/147/97
f 205/147/97 318/148/97 319/150/97 207/149/97
f 207/149/97 319/150/97 320/152/97 209/151/97
f 209/151/97 320/152/97 321/154/97 211/153/97
f 211/153/97 321/154/97 322/156/97 213/155/97
f 213/155/97 322/156/97 323/158/97 215/157/97
f 215/157/97 323/158/97 324/160/97 217/159/97
f 217/159/97 324/160/97 325/162/97 219/161/97
f 219/161/97 325/162/97 326/164/97 221/163/97
f 221/163/97 326/164/97 327/166/97 222/165/97
f 222/165/97 327/166/97 145/168/97 34/167/97
f 34/167/97 145/168/97 328/170/97 225/169/97
f 225/169/97 328/170/97 329/171/97 227/64/97
f 227/64/97 329/171/97 330/172/97 229/63/97
f 229/63/97 330/172/97 331/174/97 231/173/97
f 231/173/97 331/174/97 332/176/97 233/175/97
f 233/175/97 332/176/97 333/178/97 235/177/97
f 235/177/97 333/178/97 334/180/97 237/179/97
f 237/179/97 334/180/97 335/182/97 239/181/97
f 239/181/97 335/182/97 336/184/97 241/183/97
f 241/183/97 336/184/97 337/186/97 243/185/97
f 243/185/97 337/186/97 338/188/97 245/187/97
f 245/187/97 338/188/97 339/190/97 247/189/97
f 247/189/97 339/190/97 340/192/97 249/191/97
f 249/191/97 340/192/97 341/194/97 251/193/97
f 251/193/97 341/194/97 342/196/97 252/195/97
f 252/195/97 342/196/97 130/138/97 2/135/97
f 343/136/97 344/139/97 345/141/97 346/143/97 347/145/97 348/147/97 349/149/97 350/151/97 351/153/97 352/155/97 353/157/97 354/159/97 355/161/97 356/163/97 357/165/97 177/167/97 358/169/97 359/64/97 360/63/97 361/173/97 362/175/97 363/177/97 364/179/97 365/181/97 366/183/97 367/185/97 368/187/97 369/189/97 370/191/97 371/193/97 372/195/97 162/135/97
f 205/147/11 348/147/11 347/145/11 203/145/11
f 231/173/29 361/173/29 360/63/29 229/63/29
f 207/149/10 349/149/10 348/147/10 205/147/10
f 233/175/28 362/175/28 361/173/28 231/173/28
f 209/151/9 350/151/9 349/149/9 207/149/9
f 235/177/27 363/177/27 362/175/27 233/175/27
f 211/153/8 351/153/8 350/151/8 209/151/8
f 237/179/26 364/179/26 363/177/26 235/177/26
f 213/155/7 352/155/7 351/153/7 211/153/7
f 239/181/25 365/181/25 364/179/25 237/179/25
f 215/157/6 353/157/6 352/155/6 213/155/6
f 241/183/24 366/183/24 365/181/24 239/181/24
f 217/159/5 354/159/5 353/157/5 215/157/5
f 243/185/23 367/185/23 366/183/23 241/183/23
f 219/161/4 355/161/4 354/159/4 217/159/4
f 245/187/22 368/187/22 367/185/22 243/185/22
f 221/163/3 356/163/3 355/161/3 219/161/3
f 195/136/16 343/136/16 162/135/16 2/135/16
f 247/189/21 369/189/21 368/187/21 245/187/21
f 222/165/2 357/165/2 356/163/2 221/163/2
f 197/139/15 344/139/15 343/136/15 195/136/15
f 249/191/20 370/191/20 369/189/20 247/189/20
f 34/167/1 177/167/1 357/165/1 222/165/1
f 199/141/14 345/141/14 344/139/14 197/139/14
f 251/193/19 371/193/19 370/191/19 249/191/19
f 225/169/32 358/169/32 177/167/32 34/167/32
f 201/143/13 346/143/13 345/141/13 199/141/13
f 252/195/18 372/195/18 371/193/18 251/193/18
f 227/64/31 359/64/31 358/169/31 225/169/31
f 203/145/12 347/145/12 346/143/12 201/143/12
f 2/135/17 162/135/17 372/195/17 252/195/17
f 435/1/1 433/4/1 469/3/1 470/2/1
f 433/4/2 431/6/2 471/5/2 469/3/2
f 431/6/3 429/8/3 472/7/3 471/5/3
f 429/8/4 427/10/4 473/9/4 472/7/4
f 427/10/5 425/12/5 474/11/5 473/9/5
f 425/12/6 423/14/6 475/13/6 474/11/6
f 423/14/7 421/16/7 476/15/7 475/13/7
f 421/16/8 419/18/8 477/17/8 476/15/8
f 419/18/9 417/20/9 478/19/9 477/17/9
f 417/20/10 415/22/10 479/21/10 478/19/10
f 415/22/11 413/24/11 480/23/11 479/21/11
f 413/24/12 411/26/12 481/25/12 480/23/12
f 411/26/13 409/28/13 482/27/13 481/25/13
f 409/28/14 407/30/14 483/29/14 482/27/14
f 407/30/15 405/32/15 484/31/15 483/29/15
f 405/32/16 403/34/16 485/33/16 484/31/16
f 403/34/17 401/36/17 486/35/17 485/33/17
f 401/36/18 399/38/18 487/37/18 486/35/18
f 399/38/19 397/40/19 488/39/19 487/37/19
f 397/40/20 395/42/20 489/41/20 488/39/20
f 395/42/21 393/44/21 490/43/21 489/41/21
f 393/44/22 391/46/22 491/45/22 490/43/22
f 391/46/23 389/48/23 492/47/23 491/45/23
f 389/48/24 387/50/24 493/49/24 492/47/24
f 387/50/25 385/52/25 494/51/25 493/49/25
f 385/52/26 383/54/26 495/53/26 494/51/26
f 383/54/27 381/56/27 496/55/27 495/53/27
f 381/56/28 379/58/28 497/57/28 496/55/28
f 379/58/29 377/60/29 498/59/29 497/57/29
f 377/60/30 375/62/30 499/61/30 498/59/30
f 412/63/3 520/63/3 519/64/3 410/64/3
f 375/62/31 373/66/31 500/65/31 499/61/31
f 373/66/32 435/68/32 470/67/32 500/65/32
f 438/69/98 439/70/98 431/6/98 433/4/98
f 468/71/99 437/72/99 435/68/99 373/66/99
f 467/73/100 468/71/100 373/66/100 375/62/100
f 466/74/101 467/73/101 375/62/101 377/60/101
f 465/75/102 466/74/102 377/60/102 379/58/102
f 464/76/103 465/75/103 379/58/103 381/56/103
f 463/77/104 464/76/104 381/56/104 383/54/104
f 462/78/105 463/77/105 383/54/105 385/52/105
f 461/79/106 462/78/106 385/52/106 387/50/106
f 460/80/107 461/79/107 387/50/107 389/48/107
f 459/81/108 460/80/108 389/48/108 391/46/108
f 458/82/109 459/81/109 391/46/109 393/44/109
f 457/83/110 458/82/110 393/44/110 395/42/110
f 456/84/111 457/83/111 395/42/111 397/40/111
f 455/85/112 456/84/112 397/40/112 399/38/112
f 454/86/113 455/85/113 399/38/113 401/36/113
f 453/87/114 454/86/114 401/36/114 403/34/114
f 452/88/115 453/87/115 403/34/115 405/32/115
f 451/89/116 452/88/116 405/32/116 407/30/116
f 450/90/117 451/89/117 407/30/117 409/28/117
f 449/91/118 450/90/118 409/28/118 411/26/118
f 448/92/119 449/91/119 411/26/119 413/24/119
f 447/93/120 448/92/120 413/24/120 415/22/120
f 446/94/121 447/93/121 415/22/121 417/20/121
f 445/95/122 446/94/122 417/20/122 419/18/122
f 444/96/123 445/95/123 419/18/123 421/16/123
f 443/97/124 444/96/124 421/16/124 423/14/124
f 442/98/125 443/97/125 423/14/125 425/12/125
f 441/99/126 442/98/126 425/12/126 427/10/126
f 440/100/127 441/99/127 427/10/127 429/8/127
f 439/70/128 440/100/128 429/8/128 431/6/128
f 437/101/129 438/69/129 433/4/129 435/1/129
f 65/102/130 66/103/130 438/69/130 437/101/130
f 67/104/131 68/105/131 440/100/131 439/70/131
f 68/105/132 69/106/132 441/99/132 440/100/132
f 69/106/133 70/107/133 442/98/133 441/99/133
f 70/107/134 71/108/134 443/97/134 442/98/134
f 71/108/135 72/109/135 444/96/135 443/97/135
f 72/109/136 73/110/136 445/95/136 444/96/136
f 73/110/137 74/111/137 446/94/137 445/95/137
f 74/111/138 75/112/138 447/93/138 446/94/138
f 75/112/139 76/113/139 448/92/139 447/93/139
f 76/113/140 77/114/140 449/91/140 448/92/140
f 77/114/141 78/115/141 450/90/141 449/91/141
f 78/115/142 79/116/142 451/89/142 450/90/142
f 79/116/143 80/117/143 452/88/143 451/89/143
f 80/117/144 81/118/144 453/87/144 452/88/144
f 81/118/145 82/119/145 454/86/145 453/87/145
f 82/119/146 83/120/146 455/85/146 454/86/146
f 83/120/147 84/121/147 456/84/147 455/85/147
f 84/121/148 85/122/148 457/83/148 456/84/148
f 85/122/149 86/123/149 458/82/149 457/83/149
f 86/123/150 87/124/150 459/81/150 458/82/150
f 87/124/151 88/125/151 460/80/151 459/81/151
f 88/125/152 89/126/152 461/79/152 460/80/152
f 89/126/153 90/127/153 462/78/153 461/79/153
f 90/127/154 91/128/154 463/77/154 462/78/154
f 91/128/155 92/129/155 464/76/155 463/77/155
f 92/129/156 93/130/156 465/75/156 464/76/156
f 93/130/157 94/131/157 466/74/157 465/75/157
f 94/131/158 95/132/158 467/73/158 466/74/158
f 95/132/159 96/133/159 468/71/159 467/73/159
f 96/133/160 65/134/160 437/72/160 468/71/160
f 66/103/161 67/104/161 439/70/161 438/69/161
f 374/135/162 470/138/162 469/137/162 376/136/162
f 376/136/162 469/137/162 471/140/162 378/139/162
f 378/139/162 471/140/162 472/142/162 380/141/162
f 380/141/162 472/142/162 473/144/162 382/143/162
f 382/143/162 473/144/162 474/146/162 384/145/162
f 384/145/162 474/146/162 475/148/162 386/147/162
f 386/147/162 475/148/162 476/150/162 388/149/162
f 388/149/162 476/150/162 477/152/162 390/151/162
f 390/151/162 477/152/162 478/154/162 392/153/162
f 392/153/162 478/154/162 479/156/162 394/155/162
f 394/155/162 479/156/162 480/158/162 396/157/162
f 396/157/162 480/158/162 481/160/162 398/159/162
f 398/159/162 481/160/162 482/162/162 400/161/162
f 400/161/162 482/162/162 483/164/162 402/163/162
f 402/163/162 483/164/162 484/166/162 404/165/162
f 404/165/162 484/166/162 485/168/162 406/167/162
f 406/167/162 485/168/162 486/170/162 408/169/162
f 408/169/162 486/170/162 487/171/162 410/64/162
f 410/64/162 487/171/162 488/172/162 412/63/162
f 412/63/162 488/172/162 489/174/162 414/173/162
f 414/173/162 489/174/162 490/176/162 416/175/162
f 416/175/162 490/176/162 491/178/162 418/177/162
f 418/177/162 491/178/162 492/180/162 420/179/162
f 420/179/162 492/180/162 493/182/162 422/181/162
f 422/181/162 493/182/162 494/184/162 424/183/162
f 424/183/162 494/184/162 495/186/162 426/185/162
f 426/185/162 495/186/162 496/188/162 428/187/162
f 428/187/162 496/188/162 497/190/162 430/189/162
f 430/189/162 497/190/162 498/192/162 432/191/162
f 432/191/162 498/192/162 499/194/162 434/193/162
f 434/193/162 499/194/162 500/196/162 436/195/162
f 436/195/162 500/196/162 470/138/162 374/135/162
f 501/136/162 503/139/162 504/141/162 505/143/162 506/145/162 507/147/162 508/149/162 509/151/162 510/153/162 511/155/162 512/157/162 513/159/162 514/161/162 515/163/162 516/165/162 517/167/162 518/169/162 519/64/162 520/63/162 521/173/162 522/175/162 523/177/162 524/179/162 525/181/162 526/183/162 527/185/162 528/187/162 529/189/162 530/191/162 531/193/162 532/195/162 502/135/162
f 386/147/22 507/147/22 506/145/22 384/145/22
f 414/173/4 521/173/4 520/63/4 412/63/4
f 388/149/23 508/149/23 507/147/23 386/147/23
f 416/175/5 522/175/5 521/173/5 414/173/5
f 390/151/24 509/151/24 508/149/24 388/149/24
f 418/177/6 523/177/6 522/175/6 416/175/6
f 392/153/25 510/153/25 509/151/25 390/151/25
f 420/179/7 524/179/7 523/177/7 418/177/7
f 394/155/26 511/155/26 510/153/26 392/153/26
f 422/181/8 525/181/8 524/179/8 420/179/8
f 396/157/27 512/157/27 511/155/27 394/155/27
f 424/183/9 526/183/9 525/181/9 422/181/9
f 398/159/28 513/159/28 512/157/28 396/157/28
f 426/185/10 527/185/10 526/183/10 424/183/10
f 400/161/29 514/161/29 513/159/29 398/159/29
f 428/187/11 528/187/11 527/185/11 426/185/11
f 402/163/30 515/163/30 514/161/30 400/161/30
f 376/136/17 501/136/17 502/135/17 374/135/17
f 430/189/12 529/189/12 528/187/12 428/187/12
f 404/165/31 516/165/31 515/163/31 402/163/31
f 378/139/18 503/139/18 501/136/18 376/136/18
f 432/191/13 530/191/13 529/189/13 430/189/13
f 406/167/32 517/167/32 516/165/32 404/165/32
f 380/141/19 504/141/19 503/139/19 378/139/19
f 434/193/14 531/193/14 530/191/14 432/191/14
f 408/169/1 518/169/1 517/167/1 406/167/1
f 382/143/20 505/143/20 504/141/20 380/141/20
f 436/195/15 532/195/15 531/193/15 434/193/15
f 410/64/2 519/64/2 518/169/2 408/169/2
f 384/145/21 506/145/21 505/143/21 382/143/21
f 374/135/16 502/135/16 532/195/16 436/195/16
f 435/1/32 470/2/32 623/3/32 590/4/32
f 590/4/31 623/3/31 624/5/31 588/6/31
f 588/6/30 624/5/30 625/7/30 586/8/30
f 586/8/29 625/7/29 626/9/29 584/10/29
f 584/10/28 626/9/28 627/11/28 582/12/28
f 582/12/27 627/11/27 628/13/27 580/14/27
f 580/14/26 628/13/26 629/15/26 578/16/26
f 578/16/25 629/15/25 630/17/25 576/18/25
f 576/18/24 630/17/24 631/19/24 574/20/24
f 574/20/23 631/19/23 632/21/23 572/22/23
f 572/22/22 632/21/22 633/23/22 570/24/22
f 570/24/21 633/23/21 634/25/21 568/26/21
f 568/26/20 634/25/20 635/27/20 566/28/20
f 566/28/19 635/27/19 636/29/19 564/30/19
f 564/30/18 636/29/18 637/31/18 563/32/18
f 563/32/17 637/31/17 485/33/17 403/34/17
f 403/34/16 485/33/16 638/35/16 560/36/16
f 560/36/15 638/35/15 639/37/15 558/38/15
f 558/38/14 639/37/14 640/39/14 556/40/14
f 556/40/13 640/39/13 641/41/13 554/42/13
f 554/42/12 641/41/12 642/43/12 552/44/12
f 552/44/11 642/43/11 643/45/11 550/46/11
f 550/46/10 643/45/10 644/47/10 548/48/10
f 548/48/9 644/47/9 645/49/9 546/50/9
f 546/50/8 645/49/8 646/51/8 544/52/8
f 544/52/7 646/51/7 647/53/7 542/54/7
f 542/54/6 647/53/6 648/55/6 540/56/6
f 540/56/5 648/55/5 649/57/5 538/58/5
f 538/58/4 649/57/4 650/59/4 536/60/4
f 536/60/3 650/59/3 651/61/3 534/62/3
f 569/63/30 567/64/30 669/64/30 670/63/30
f 534/62/2 651/61/2 652/65/2 533/66/2
f 533/66/1 652/65/1 470/67/1 435/68/1
f 593/69/100 590/4/100 588/6/100 594/70/100
f 622/71/129 533/66/129 435/68/129 437/72/129
f 621/73/98 534/62/98 533/66/98 622/71/98
f 620/74/128 536/60/128 534/62/128 621/73/128
f 619/75/127 538/58/127 536/60/127 620/74/127
f 618/76/126 540/56/126 538/58/126 619/75/126
f 617/77/125 542/54/125 540/56/125 618/76/125
f 616/78/124 544/52/124 542/54/124 617/77/124
f 615/79/123 546/50/123 544/52/123 616/78/123
f 614/80/122 548/48/122 546/50/122 615/79/122
f 613/81/121 550/46/121 548/48/121 614/80/121
f 612/82/120 552/44/120 550/46/120 613/81/120
f 611/83/119 554/42/119 552/44/119 612/82/119
f 610/84/118 556/40/118 554/42/118 611/83/118
f 609/85/117 558/38/117 556/40/117 610/84/117
f 608/86/116 560/36/116 558/38/116 609/85/116
f 453/87/115 403/34/115 560/36/115 608/86/115
f 607/88/114 563/32/114 403/34/114 453/87/114
f 606/89/113 564/30/113 563/32/113 607/88/113
f 605/90/112 566/28/112 564/30/112 606/89/112
f 604/91/111 568/26/111 566/28/111 605/90/111
f 603/92/110 570/24/110 568/26/110 604/91/110
f 602/93/109 572/22/109 570/24/109 603/92/109
f 601/94/108 574/20/108 572/22/108 602/93/108
f 600/95/107 576/18/107 574/20/107 601/94/107
f 599/96/106 578/16/106 576/18/106 600/95/106
f 598/97/105 580/14/105 578/16/105 599/96/105
f 597/98/104 582/12/104 580/14/104 598/97/104
f 596/99/103 584/10/103 582/12/103 597/98/103
f 595/100/102 586/8/102 584/10/102 596/99/102
f 594/70/101 588/6/101 586/8/101 595/100/101
f 437/101/99 435/1/99 590/4/99 593/69/99
f 65/102/160 437/101/160 593/69/160 253/103/160
f 254/104/158 594/70/158 595/100/158 255/105/158
f 255/105/157 595/100/157 596/99/157 256/106/157
f 256/106/156 596/99/156 597/98/156 257/107/156
f 257/107/155 597/98/155 598/97/155 258/108/155
f 258/108/154 598/97/154 599/96/154 259/109/154
f 259/109/153 599/96/153 600/95/153 260/110/153
f 260/110/152 600/95/152 601/94/152 261/111/152
f 261/111/151 601/94/151 602/93/151 262/112/151
f 262/112/150 602/93/150 603/92/150 263/113/150
f 263/113/149 603/92/149 604/91/149 264/114/149
f 264/114/148 604/91/148 605/90/148 265/115/148
f 265/115/147 605/90/147 606/89/147 266/116/147
f 266/116/146 606/89/146 607/88/146 267/117/146
f 267/117/145 607/88/145 453/87/145 81/118/145
f 81/118/144 453/87/144 608/86/144 268/119/144
f 268/119/143 608/86/143 609/85/143 269/120/143
f 269/120/142 609/85/142 610/84/142 270/121/142
f 270/121/141 610/84/141 611/83/141 271/122/141
f 271/122/140 611/83/140 612/82/140 272/123/140
f 272/123/139 612/82/139 613/81/139 273/124/139
f 273/124/138 613/81/138 614/80/138 274/125/138
f 274/125/137 614/80/137 615/79/137 275/126/137
f 275/126/136 615/79/136 616/78/136 276/127/136
f 276/127/135 616/78/135 617/77/135 277/128/135
f 277/128/134 617/77/134 618/76/134 278/129/134
f 278/129/133 618/76/133 619/75/133 279/130/133
f 279/130/132 619/75/132 620/74/132 280/131/132
f 280/131/131 620/74/131 621/73/131 281/132/131
f 281/132/161 621/73/161 622/71/161 282/133/161
f 282/133/130 622/71/130 437/72/130 65/134/130
f 253/103/159 593/69/159 594/70/159 254/104/159
f 374/135/162 535/136/162 623/137/162 470/138/162
f 535/136/162 537/139/162 624/140/162 623/137/162
f 537/139/162 539/141/162 625/142/162 624/140/162
f 539/141/162 541/143/162 626/144/162 625/142/162
f 541/143/162 543/145/162 627/146/162 626/144/162
f 543/145/162 545/147/162 628/148/162 627/146/162
f 545/147/162 547/149/162 629/150/162 628/148/162
f 547/149/162 549/151/162 630/152/162 629/150/162
f 549/151/162 551/153/162 631/154/162 630/152/162
f 551/153/162 553/155/162 632/156/162 631/154/162
f 553/155/162 555/157/162 633/158/162 632/156/162
f 555/157/162 557/159/162 634/160/162 633/158/162
f 557/159/162 559/161/162 635/162/162 634/160/162
f 559/161/162 561/163/162 636/164/162 635/162/162
f 561/163/162 562/165/162 637/166/162 636/164/162
f 562/165/162 406/167/162 485/168/162 637/166/162
f 406/167/162 565/169/162 638/170/162 485/168/162
f 565/169/162 567/64/162 639/171/162 638/170/162
f 567/64/162 569/63/162 640/172/162 639/171/162
f 569/63/162 571/173/162 641/174/162 640/172/162
f 571/173/162 573/175/162 642/176/162 641/174/162
f 573/175/162 575/177/162 643/178/162 642/176/162
f 575/177/162 577/179/162 644/180/162 643/178/162
f 577/179/162 579/181/162 645/182/162 644/180/162
f 579/181/162 581/183/162 646/184/162 645/182/162
f 581/183/162 583/185/162 647/186/162 646/184/162
f 583/185/162 585/187/162 648/188/162 647/186/162
f 585/187/162 587/189/162 649/190/162 648/188/162
f 587/189/162 589/191/162 650/192/162 649/190/162
f 589/191/162 591/193/162 651/194/162 650/192/162
f 591/193/162 592/195/162 652/196/162 651/194/162
f 592/195/162 374/135/162 470/138/162 652/196/162
f 653/136/162 502/135/162 682/195/162 681/193/162 680/191/162 679/189/162 678/187/162 677/185/162 676/183/162 675/181/162 674/179/162 673/177/162 672/175/162 671/173/162 670/63/162 669/64/162 668/169/162 517/167/162 667/165/162 666/163/162 665/161/162 664/159/162 663/157/162 662/155/162 661/153/162 660/151/162 659/149/162 658/147/162 657/145/162 656/143/162 655/141/162 654/139/162
f 545/147/11 543/145/11 657/145/11 658/147/11
f 571/173/29 569/63/29 670/63/29 671/173/29
f 547/149/10 545/147/10 658/147/10 659/149/10
f 573/175/28 571/173/28 671/173/28 672/175/28
f 549/151/9 547/149/9 659/149/9 660/151/9
f 575/177/27 573/175/27 672/175/27 673/177/27
f 551/153/8 549/151/8 660/151/8 661/153/8
f 577/179/26 575/177/26 673/177/26 674/179/26
f 553/155/7 551/153/7 661/153/7 662/155/7
f 579/181/25 577/179/25 674/179/25 675/181/25
f 555/157/6 553/155/6 662/155/6 663/157/6
f 581/183/24 579/181/24 675/181/24 676/183/24
f 557/159/5 555/157/5 663/157/5 664/159/5
f 583/185/23 581/183/23 676/183/23 677/185/23
f 559/161/4 557/159/4 664/159/4 665/161/4
f 585/187/22 583/185/22 677/185/22 678/187/22
f 561/163/3 559/161/3 665/161/3 666/163/3
f 535/136/16 374/135/16 502/135/16 653/136/16
f 587/189/21 585/187/21 678/187/21 679/189/21
f 562/165/2 561/163/2 666/163/2 667/165/2
f 537/139/15 535/136/15 653/136/15 654/139/15
f 589/191/20 587/189/20 679/189/20 680/191/20
f 406/167/1 562/165/1 667/165/1 517/167/1
f 539/141/14 537/139/14 654/139/14 655/141/14
f 591/193/19 589/191/19 680/191/19 681/193/19
f 565/169/32 406/167/32 517/167/32 668/169/32
f 541/143/13 539/141/13 655/141/13 656/143/13
f 592/195/18 591/193/18 681/193/18 682/195/18
f 567/64/31 565/169/31 668/169/31 669/64/31
f 543/145/12 541/143/12 656/143/12 657/145/12
f 374/135/17 592/195/17 682/195/17 502/135/17
